<svg xmlns="http://www.w3.org/2000/svg" viewBox="0 0 48 48" width="48" height="48"><path fill="#FFF" stroke="#4488D5" stroke-width="1.16" stroke-linecap="round" stroke-miterlimit="10" d="M12.64 20.43h16.67M12.64 24.43h13.52M12.64 28.43h16.38"/><path fill="none" stroke="#5BB543" stroke-width="1.16" stroke-linecap="round" stroke-miterlimit="10" d="M12.72 38.86h5.08"/><path fill="#FFF" stroke="#4488D5" stroke-width="1.16" stroke-linecap="round" stroke-miterlimit="10" d="M12.64 32.44h14.5"/><path fill="none" stroke="#4488D5" stroke-width="1.16" stroke-miterlimit="10" d="M38.27 43.42H9.73c-.9 0-1.64-.74-1.64-1.65V6.23c0-.9.74-1.65 1.64-1.65h28.54c.9 0 1.65.74 1.65 1.65v35.54c0 .9-.75 1.65-1.65 1.65z"/><g fill="#4488D5"><path d="M13.03 14c-.17 0-.32-.02-.44-.06v-.56c.15.04.28.06.4.06.35 0 .53-.23.53-.7l-.01-2.89h.65v2.88c0 .41-.09.73-.28.95-.2.22-.48.33-.85.33zM18.71 11.94c0 .66-.16 1.18-.48 1.54-.33.37-.78.55-1.37.55-.6 0-1.06-.18-1.38-.54a2.27 2.27 0 0 1-.48-1.55c0-.67.16-1.19.48-1.55s.78-.54 1.38-.54c.6 0 1.05.18 1.37.55s.48.88.48 1.54zm-3.02 0c0 .5.1.88.3 1.14.19.26.48.39.87.39.38 0 .67-.13.87-.39.2-.25.3-.63.3-1.14 0-.5-.1-.87-.3-1.13-.2-.26-.48-.39-.87-.39s-.68.13-.88.39c-.2.26-.3.63-.3 1.13zM19.56 9.92h1.18c.54 0 .94.08 1.18.24s.36.42.36.77c0 .24-.06.44-.17.6a.8.8 0 0 1-.52.3v.02c.28.06.48.16.61.32.14.16.2.37.2.64 0 .37-.12.65-.37.86-.25.2-.6.3-1.04.3h-1.43V9.93zm.65 1.68h.62c.27 0 .47-.05.6-.14.12-.08.18-.23.18-.45 0-.19-.06-.32-.2-.41s-.35-.13-.64-.13h-.56v1.13zm0 .53v1.29h.69c.27 0 .47-.05.61-.16.14-.1.2-.28.2-.5 0-.21-.06-.37-.2-.47a1.1 1.1 0 0 0-.65-.16h-.65z"/></g></svg>