<svg xmlns="http://www.w3.org/2000/svg" viewBox="0 0 48 48" width="48" height="48"><path fill="none" stroke="#4488D5" stroke-width="1.2" d="M20.49 28.22l1.23 5.7c0 .52-.42.93-.95.93h-1.53M11.05 28.13l3.09 11.1c0 .51.42.93.94.93h4.4c.52 0 .94-.42.94-.93l-3.06-11.01M7.46 26.28H6.01c-.52 0-.94-.5-.94-1.1v-5.85c0-.6.42-1.1.94-1.1h1.45"/><path fill="none" stroke="#4488D5" stroke-width="1.2" d="M13.56 16.27H8.09a.93.93 0 0 0-.95.92v10.2c0 .5.42.92.95.92h5.47V16.27z"/><path fill="none" stroke="#4488D5" stroke-width="1.2" d="M40.24 35.73V8.79a.96.96 0 0 0-1.54-.75c-2.98 2.24-8.38 8.1-14.75 8.1h-16a.94.94 0 0 0-.94.93v10.3c0 .51.42.93.94.93l16 .06c6.37 0 11.78 5.87 14.76 8.11a.96.96 0 0 0 1.53-.74zM40.24 20.06c1.49 0 2.7 1.18 2.7 2.64a2.67 2.67 0 0 1-2.58 2.64"/></svg>