<svg xmlns="http://www.w3.org/2000/svg" width="125" height="32" viewBox="0 0 125 32">
  <path fill="#9EA5AC" d="M47.3 25.1h-3.2v-1.9H44c-1 1.4-3.1 2.4-4.9 2.4-2.2 0-4-.9-5.3-2.4-1.1-1.3-1.8-3.2-1.8-5.1 0-2 .5-3.6 1.8-5.1 1.5-1.7 3.2-2.4 5.3-2.4 2 0 3.7.9 4.8 2.4v-2h3.2v14.1zm-7.4-11.2c-2.5 0-4.3 1.9-4.3 4.3 0 2.3 1.9 4.1 4.3 4.1 2.5 0 4.2-1.8 4.2-4.2 0-2.4-1.7-4.2-4.2-4.2zm24.5 11.2h-3.2v-1.9h-.1c-1 1.5-2.9 2.4-4.8 2.4-2.1 0-3.9-.9-5.2-2.4-1.2-1.4-1.9-3.2-1.9-5.1 0-1.9.6-3.7 1.9-5.2 1.3-1.4 3.3-2.4 5.3-2.4 1.7 0 3.3.7 4.4 1.9V6.3h3.4v18.8zm-7.5-11.2c-2.2 0-4.1 1.9-4.1 4.1 0 2.3 1.8 4.3 4.2 4.3 2.4 0 4.3-1.9 4.3-4.2-.1-2.4-2.1-4.2-4.4-4.2zm9.6 8.2l6.4-8.1h-5.7v-3H77v3l-6.4 8.1h6.8v3H66.5v-3zM92.1 11v14.1H89v-1.5h-.1c-.7 1.4-2.1 2-3.7 2-1.7 0-3.3-.6-4.5-2-1.3-1.3-1.4-2.8-1.4-4.6v-8h3.4v6.9c0 .9 0 2.1.4 2.9.5.9 1.4 1.4 2.5 1.4 2.6 0 3-2.3 3-4.3V11h3.5zm2.8 0h3.2v1.3h.1c.9-1.2 2.4-1.8 3.9-1.8s3.1.7 4.1 1.8l.4.4c1.1 1.5 1.1 3.3 1.1 5.1v7.3h-3.4v-6.6c0-1.1 0-2.5-.6-3.4-.5-.7-1.4-1.2-2.3-1.2-.9 0-1.9.5-2.4 1.2-.6 1-.6 2.5-.6 3.6v6.4H95V11zM125 25.1h-3.2v-1.9h-.1c-1 1.4-3.1 2.4-4.9 2.4-2.2 0-4-.9-5.3-2.4-1.1-1.3-1.8-3.2-1.8-5.1 0-2 .5-3.6 1.8-5.1 1.5-1.7 3.2-2.4 5.3-2.4 2 0 3.7.9 4.8 2.4v-2h3.2v14.1zm-7.4-11.2c-2.5 0-4.3 1.9-4.3 4.3 0 2.3 1.9 4.1 4.3 4.1 2.5 0 4.2-1.8 4.2-4.2-.1-2.4-1.8-4.2-4.2-4.2zM29.5 16.6c0-5.1-1.9-9.4-5.4-12.4C20.8 1.5 16.3 0 11.3 0v4.1c4 0 7.5 1.1 10 3.2 2.6 2.2 4 5.4 4 9.2 0 6.2-5.2 11.3-11.6 11.3-5.2 0-9.5-4.2-9.5-9.3 0-2 .8-3.9 2.3-5.3C8 11.8 9.9 11 12 11c1.8 0 3.4.5 4.4 1.4 1.1.9 1.6 2.2 1.6 3.8 0 2.7-2 4.6-4.8 4.6V25c5.1 0 9-3.7 9-8.7 0-2.8-1.1-5.2-3.1-6.9C17.3 7.8 14.8 7 12 7c-3.2 0-6.2 1.2-8.5 3.4-2.2 2.1-3.5 5-3.5 8.2C0 26 6.2 32 13.7 32c8.7 0 15.8-6.9 15.8-15.4z"/>
</svg>