<svg xmlns="http://www.w3.org/2000/svg" viewBox="0 0 48 48"><style>.st2{fill:none;stroke:#bcbcbc;stroke-width:.5;stroke-miterlimit:10}.st4{fill:#4985c5}</style><g id="Layer_1"><path d="M39.8 36.5H8.4c-1 0-1.8-.8-1.8-1.8V18.1c0-1 .8-1.8 1.8-1.8h31.4c1 0 1.8.8 1.8 1.8v16.6c.1 1-.8 1.8-1.8 1.8z" fill="#4fa6d8"/><path class="st4" d="M39.8 37.1H8.4C7.1 37.1 6 36 6 34.7V18.1c0-1.3 1.1-2.4 2.4-2.4h31.4c1.3 0 2.4 1.1 2.4 2.4v16.6c0 1.3-1.1 2.4-2.4 2.4zM8.4 16.8c-.7 0-1.3.6-1.3 1.3v16.6c0 .7.6 1.3 1.3 1.3h31.4c.7 0 1.3-.6 1.3-1.3V18.1c0-.7-.6-1.3-1.3-1.3H8.4z"/><path class="st4" d="M39.8 28.7H8.4c-1.3 0-2.4-1.1-2.4-2.4v-8.5h1.1v8.5c0 .7.6 1.3 1.3 1.3h31.4c.7 0 1.3-.6 1.3-1.3v-8.7h1.1v8.7c0 1.3-1.1 2.4-2.4 2.4zM17.7 16.3c0-.4-.3-4.4 1.4-6.2.6-.6 1.3-.9 2.1-.9H27v1.6h-5.6c-.4 0-.7.1-1 .4-1 1.1-1.1 4-1 5l-1.7.1z"/><path class="st4" d="M30.5 16.3l-1.6-.1c.1-1 0-3.9-1.1-5-.3-.3-.6-.4-1-.4V9.2c.8 0 1.6.3 2.1.9 1.8 1.8 1.7 5.7 1.6 6.2z"/><g><path d="M25.6 28.7c0 .8-.7 1.5-1.5 1.5h-.5c-.8 0-1.5-.7-1.5-1.5V26c0-.8.7-1.5 1.5-1.5h.5c.8 0 1.5.7 1.5 1.5v2.7z" fill="#fff"/><path class="st4" d="M24.1 30.8h-.5a2 2 0 0 1-2-2V26c0-1.1.9-2 2-2h.5a2 2 0 0 1 2 2v2.8c.1 1.1-.9 2-2 2zm-.5-5.8a1 1 0 0 0-1 1v2.8c0 .5.4 1 1 1h.5c.5 0 1-.4 1-1V26c0-.5-.4-1-1-1h-.5z"/></g></g></svg>