<svg id="Layer_1" xmlns="http://www.w3.org/2000/svg" viewBox="0 0 48 48"><style>.st2{fill:none;stroke:#bcbcbc;stroke-width:.5;stroke-miterlimit:10}.st3{fill:#4985c5}.st4{fill:#4fa6d8}</style><g id="Handshake_1_"><path class="st3" d="M25.5 39.2c-3.8 0-12.8-8.3-15.7-10.9-.3-.3-.3-.7 0-1 .3-.3.7-.3 1 0 5.9 5.5 13.2 11 14.8 10.5l.4-.5c0-.1 0-.3-.1-.4L22.1 33c-.3-.3-.3-.7 0-1 .3-.3.7-.3 1 0l5 4.5c.4 0 1.3.1 2-1v-.3l-4.3-4.1c-.3-.3-.3-.7 0-1 .3-.3.7-.3 1 0l4.8 4.3c.5 0 2.1-.1 2.4-1.2V33l-5.6-5.1c-.3-.3-.3-.7 0-1 .3-.3.7-.3 1 0l6 5.2c.4-.1 1-.4 1.3-.8 0-.1.3-.4-.1-1.2-1.2-2.4-5.2-4.8-5.4-4.8l-5.6-4.1c-.4 0-1.2.1-1.7.4-.3.1-.3.3-.5.5-.3.5-.7 1.2-1.8 1.7-1.3.7-3.3.7-4.3-.1-.4-.3-.9-1-.5-2.4.8-2.4 3-6.3 5.6-7.5 2.5-1 3.9-.7 5.6-.1l.4.1c1.8.5 6.7 2.2 6.7 2.2l4.5 1.6c.3.1.4.4.5.7l.7 9.7c0 .3-.1.5-.4.7l-2 .9-.3.1c.4 1 .3 1.7 0 2.2a5.09 5.09 0 0 1-3 1.7c-.7 1.8-2.9 2.1-3.7 2.1 0 .1-.1.3-.1.4-1 1.8-2.9 2-3.7 1.7h-.1c0 .1-.1.1-.1.3v.1l-.5.7c0 .1-.1.1-.3.1-.4.2-.7.2-1.1.2zm-.1-19.3c.1 0 .3 0 .4.1l5.8 4.2c.1.1 3.5 2.1 5.2 4.5l.3-.1h.1l1.6-.7-.6-8.9-4.1-1.4s-4.7-1.6-6.7-2.1l-.3-.1c-1.7-.5-2.6-.8-4.6 0-2.1.9-4.2 4.5-4.8 6.7-.1.5 0 .8.1.8.5.4 1.8.4 2.8 0 .8-.4 1-.8 1.3-1.2.3-.4.4-.8.9-1 1-.8 2.4-.8 2.6-.8z"/><path class="st3" d="M10.2 17.8c-.3 0-.5-.1-.7-.5-.1-.4 0-.8.4-.9.1 0 3.3-1.2 10-.9.4 0 .7.4.7.8s-.4.7-.8.7c-6.4-.1-9.4.9-9.4.9h-.2z"/><path class="st4" d="M47 16s-5.5-.4-8.1 2.4l.8 10.9s3.8 2.5 7.3 1V16z"/><path class="st3" d="M44.5 31.4c-2.8 0-5.1-1.6-5.2-1.6-.1-.1-.3-.3-.3-.5l-.8-10.9c0-.3 0-.4.1-.5 2.9-3 8.5-2.6 8.6-2.6.4 0 .7.4.7.7v14.3c0 .3-.1.5-.4.7-.9.3-1.8.4-2.7.4zm-4.2-2.6c.9.5 3.5 1.7 6 .9v-13c-1.4 0-4.7.3-6.7 2l.7 10.1z"/><g><path class="st4" d="M1.1 15.2l.1 15.1s7.2.7 8.9-2.8V17c.1.2-3.6-3.6-9-1.8z"/><path class="st3" d="M2.6 31.1H1.3c-.4 0-.7-.4-.7-.7L.4 15.2c0-.3.1-.5.5-.7 5.8-2 9.6 1.8 9.8 2 .1.1.3.3.3.5l.1 10.5c0 .1 0 .3-.1.3-1.5 3-6.1 3.3-8.4 3.3zm-.5-1.4c2.2.1 6.3-.3 7.5-2.2V17.4c-.8-.7-3.7-2.8-7.6-1.7l.1 14z"/></g></g></svg>