<svg xmlns="http://www.w3.org/2000/svg" viewBox="0 0 48 48" width="48" height="48"><path fill="#FFF" stroke="#4488d5" stroke-width="1.179" d="M26.117 19.894a4.422 4.422 0 0 0-1.714-.343 4.434 4.434 0 0 0-4.099 2.714 4.348 4.348 0 0 0-.013 3.377 4.394 4.394 0 0 0 2.395 2.398 4.448 4.448 0 0 0 1.711.343A4.436 4.436 0 0 0 28.5 25.67c.946-2.247-.124-4.838-2.383-5.776z"/><path fill="#5bb543" stroke="#4488d5" stroke-width="1.179" d="M41.64 7.788a2.782 2.782 0 0 0-1.08.21 2.772 2.772 0 0 0-.918 4.526 2.783 2.783 0 0 0 1.974.823 2.8 2.8 0 0 0 1.079-.21 2.773 2.773 0 0 0 1.73-2.559 2.791 2.791 0 0 0-2.785-2.79zM25.373 4.104a2.527 2.527 0 0 0-.977-.194 2.526 2.526 0 0 0-2.332 1.55 2.48 2.48 0 0 0-.004 1.924 2.5 2.5 0 0 0 1.367 1.363c.312.129.64.194.975.193a2.526 2.526 0 0 0 2.334-1.55 2.509 2.509 0 0 0-1.363-3.286zM38.628 35.446a2.117 2.117 0 0 0-.232-.81 2.152 2.152 0 0 0-2.089-1.15 2.14 2.14 0 0 0-1.467.746 2.115 2.115 0 0 0-.507 1.559c.023.285.101.557.232.809.4.77 1.22 1.222 2.089 1.152a2.147 2.147 0 0 0 1.974-2.306zM23.245 41.007a3.223 3.223 0 0 0-.18-1.275 3.285 3.285 0 0 0-2.919-2.18 3.28 3.28 0 0 0-2.381.822 3.237 3.237 0 0 0-1.098 2.254c-.025.437.035.865.18 1.273a3.286 3.286 0 0 0 2.92 2.183c1.813.105 3.373-1.276 3.478-3.077z"/><path fill="none" stroke="#4488d5" stroke-width="1.179" d="M34.906 34.203l-7.975-7.1M27.839 20.788l11.822-8.101"/><path fill="#5bb543" stroke="#4488d5" stroke-width="1.179" d="M9.205 32.706c.293.123.603.184.918.184.962 0 1.824-.571 2.195-1.454a2.331 2.331 0 0 0 .007-1.809 2.352 2.352 0 0 0-1.283-1.284 2.375 2.375 0 0 0-.917-.183 2.361 2.361 0 0 0-.92 4.546zM5.818 18.425c.451.188.925.282 1.41.282a3.647 3.647 0 0 0 3.371-2.232 3.577 3.577 0 0 0 .011-2.777 3.615 3.615 0 0 0-1.97-1.972 3.655 3.655 0 0 0-1.407-.282 3.648 3.648 0 0 0-3.374 2.231 3.626 3.626 0 0 0 1.959 4.75z"/><path fill="none" stroke="#4488d5" stroke-width="1.179" d="M10.885 17.314l9.418 4.95M20.497 26.073l-8.172 3.554"/><path fill="#5bb543" stroke="#4488d5" stroke-width="1.179" d="M39.993 22.211a2.387 2.387 0 0 0-3.365-.036 2.335 2.335 0 0 0-.716 1.663 2.334 2.334 0 0 0 .678 1.679 2.388 2.388 0 0 0 3.366.036c.938-.911.955-2.41.037-3.342z"/><path fill="none" stroke="#4488d5" stroke-width="1.179" d="M28.374 24.442l7.538-.577M24.494 19.55l-.02-10.61M23.543 27.982l-2.679 9.636"/></svg>