<svg xmlns="http://www.w3.org/2000/svg" xmlns:xlink="http://www.w3.org/1999/xlink" viewBox="0 0 48 48" width="48" height="48"><path fill="none" stroke="#4488D5" stroke-width=".95" d="M29.01 38.47h-9.75l.87-3.62h7.91z"/><defs><path id="a" d="M44.53 33.48c0 .68-.68 1.24-1.52 1.24H5c-.84 0-1.52-.56-1.52-1.24V11.15c0-.68.68-1.23 1.52-1.23H43c.84 0 1.52.55 1.52 1.23v22.33z"/></defs><use xlink:href="#a" overflow="visible" fill="none" stroke="#4488D5" stroke-width=".95"/><defs><path id="b" d="M41.5 31.3c0 .54-.58.99-1.3.99H7.8c-.72 0-1.3-.45-1.3-1V13.34c0-.55.58-1 1.3-1h32.4c.72 0 1.3.45 1.3 1V31.3z"/></defs><use xlink:href="#b" overflow="visible" fill="none" stroke="#4488D5" stroke-width=".95"/><path fill="#FFF" stroke="#4488D5" stroke-width=".95" d="M30.77 40.08H17.5a1.28 1.28 0 1 1 0-2.56h13.26a1.28 1.28 0 0 1 0 2.56z"/><path fill="none" stroke="#4488D5" stroke-width=".95" stroke-linecap="round" d="M13.49 23.88H34.4M13.49 26.29h17M13.57 21.43h17M13.49 28.71h18.69"/><path fill="#5BB543" d="M33.87 19.28H19c-.74 0-1.35-.6-1.35-1.34v-.73c0-.74.6-1.34 1.35-1.34h14.87c.74 0 1.35.6 1.35 1.34v.73c0 .74-.6 1.34-1.35 1.34z"/><path fill="#4EA7DA" d="M15.25 19.28h-.84c-.75 0-1.35-.6-1.35-1.34v-.73c0-.74.6-1.34 1.35-1.34h.84c.74 0 1.34.6 1.34 1.34v.73c0 .74-.6 1.34-1.34 1.34z"/></svg>