<svg xmlns="http://www.w3.org/2000/svg" viewBox="0 0 48 48" width="48" height="48"><g stroke="#4488D5" stroke-width="1.223" stroke-miterlimit="10"><path fill="#FFF" d="M11.332 30.331V19.79c0-6.819 5.671-12.347 12.667-12.347 6.998 0 12.67 5.528 12.67 12.347v10.541h3.507V19.367c0-8.71-7.241-15.768-16.177-15.768-8.932 0-16.174 7.058-16.174 15.768v10.964h3.507z"/><path fill="#FFF" d="M37.808 31.488c-1.262 3.727-4.413 6.705-8.433 7.999v2.707c5.451-1.477 11.098-6.656 11.098-12.619l-2.665 1.913z"/><path fill="#FFF" d="M30.048 40.786c0 1.996-1.586 3.615-3.544 3.615h-3.147c-1.959 0-3.545-1.619-3.545-3.615 0-1.995 1.586-3.611 3.545-3.611h3.147c1.958 0 3.544 1.615 3.544 3.611z"/><path fill="#4EA7DA" d="M11.863 17.306c-.042 0-.081.008-.122.012v-.012c-4.169 0-7.547 3.604-7.547 8.05s3.378 8.049 7.547 8.049v-.012c.041.004.08.012.122.012.626 0 1.133-.497 1.133-1.113V18.416a1.12 1.12 0 0 0-1.133-1.11zM36.258 17.703v.012c-.041-.004-.081-.012-.122-.012-.626 0-1.133.496-1.133 1.111v13.878c0 .613.507 1.113 1.133 1.113.042 0 .082-.008.122-.012v.012c4.168 0 7.548-3.605 7.548-8.05 0-4.448-3.38-8.052-7.548-8.052z"/></g></svg>