<svg xmlns="http://www.w3.org/2000/svg" viewBox="0 0 48 48" width="48" height="48"><path fill="#FFF" stroke="#4488D5" stroke-width=".99" stroke-linecap="round" stroke-miterlimit="10" d="M11.73 21h14.65m-14.65 3.29h11.89"/><path fill="none" stroke="#4488D5" stroke-width=".99" stroke-miterlimit="10" d="M35.71 37.79v.78c0 .75-.65 1.37-1.43 1.37H9.15a1.4 1.4 0 0 1-1.42-1.37V9.3c0-.75.65-1.37 1.43-1.37h25.12c.79 0 1.43.62 1.43 1.38v23.57"/><path fill="#4488D5" d="M12.08 15.7c-.16 0-.29-.02-.4-.06v-.46c.14.04.26.05.35.05.32 0 .47-.19.47-.57v-2.39h.57v2.37c0 .35-.08.6-.25.8-.17.18-.42.26-.74.26zm4.99-1.7c0 .54-.14.97-.43 1.27-.28.3-.68.46-1.2.46-.53 0-.93-.16-1.21-.47A1.8 1.8 0 0 1 13.8 14c0-.56.14-.99.43-1.28.28-.3.69-.45 1.2-.45.54 0 .93.15 1.21.46.28.3.43.72.43 1.27zm-2.66 0c0 .41.09.72.26.93.17.22.42.33.77.33.34 0 .6-.1.77-.32.16-.21.26-.53.26-.94 0-.41-.1-.73-.26-.93-.17-.22-.43-.32-.76-.32-.35 0-.6.1-.78.31a1.5 1.5 0 0 0-.26.94zm3.41-1.67h1.03c.48 0 .83.06 1.04.2.21.13.32.35.32.64 0 .19-.05.35-.15.48a.71.71 0 0 1-.46.25v.02c.24.05.43.13.54.27.12.13.18.3.18.53 0 .3-.12.54-.34.7-.21.17-.52.26-.9.26h-1.26v-3.35zm.57 1.39h.55c.23 0 .41-.05.51-.11.11-.08.17-.2.17-.37 0-.16-.06-.28-.18-.35-.12-.06-.3-.1-.55-.1h-.5v.93zm0 .43v1.07h.6c.24 0 .42-.05.55-.13.13-.09.18-.23.18-.42s-.06-.3-.18-.39c-.18-.1-.38-.14-.58-.13h-.57z"/><g fill="#5BB543"><path d="M17.73 31.02h-.33v1.04h.23c.17.01.34-.05.47-.16a.56.56 0 0 0 .16-.42c0-.3-.18-.46-.53-.46zm4.19 0h-.33v1.04h.24c.16.01.33-.05.45-.16a.56.56 0 0 0 .17-.42c0-.3-.18-.46-.53-.46zm-8.58.3a9.6 9.6 0 0 1-.14-.55l-.11.51-.38 1.43h1l-.2-.74-.17-.65z"/><path d="M35.16 27.25H7.88A2.83 2.83 0 0 0 5 30.02v4.54c0 1.52 1.3 2.76 2.88 2.76h27.28c.38 0-.98-4.3-.65-4.41 1.05-.41 2.62.96 3.53 1.65v-4.54c0-1.52-1.3-2.77-2.88-2.77zm-20.95 7.32l-.23-.85h-1.54l-.24.85h-1.4l1.54-4.56h1.7l1.57 4.56h-1.39zm4.88-1.91c-.31.27-.76.4-1.32.4h-.38v1.51h-1.27v-4.54h1.65c.59 0 1.03.12 1.34.37.3.25.45.6.45 1.07 0 .5-.15.9-.47 1.19zm4.2 0c-.32.27-.77.4-1.34.4h-.36v1.51H20.3v-4.54h1.64c.6 0 1.04.12 1.34.37.3.25.46.6.46 1.07 0 .5-.16.9-.47 1.19zm4.32 1.91H24.5v-4.54h1.28v3.55h1.83v1zm3.08-1.77v1.77H29.4v-1.73l-1.55-2.82h1.39l.8 1.69.82-1.69h1.4l-1.57 2.78z"/></g><path fill="none" stroke="#4488D5" stroke-width=".99" stroke-miterlimit="10" d="M38.04 34.08v-4.07c0-1.52-1.3-2.77-2.88-2.77H7.88A2.83 2.83 0 0 0 5 30.02v4.54c0 1.52 1.3 2.77 2.88 2.77h27.28c.27 0 .52-.03.77-.1"/><path fill="#4488D5" d="M34.67 33.07l7.51 3.5-2.28 1.07 2.6 2.88-1.26 1.06-2.6-2.88-1.43 2.02-2.53-7.65m0-.98a1 1 0 0 0-.93 1.3l2.53 7.63a1 1 0 0 0 1.74.26l.71-1 1.78 1.96a1 1 0 0 0 1.37.1l1.26-1.06a1 1 0 0 0 .12-1.4l-.02-.02-1.7-1.89 1.07-.5a1 1 0 0 0 0-1.78l-7.51-3.5a.97.97 0 0 0-.42-.1z"/></svg>