<svg xmlns="http://www.w3.org/2000/svg" viewBox="0 0 48 48" width="48" height="48"><path fill="none" stroke="#4488D5" stroke-width="1.23" stroke-linecap="round" stroke-linejoin="round" stroke-miterlimit="10" d="M11.72 26.3s11.56 10.42 14.04 9.07l.5-.62a.86.86 0 0 0-.16-1.06l-3.38-3.24 4.5 3.87s1.6.48 2.57-1.15a.76.76 0 0 0-.14-.96l-3.87-3.49 4.43 3.81s2.41.13 2.98-1.39l.14-.47L28 26l5.6 4.76s2.86-.44 1.76-2.65-4.97-4.42-4.97-4.42l-5.17-3.57s-1.27 0-2.06.5c-.78.48-.54 1.23-2 1.92s-4.02.42-3.41-1.44c.61-1.87 2.56-5.15 4.66-6.06 2.1-.9 3.2-.46 4.9.03 1.68.49 5.92 1.86 5.92 1.86l3.93 1.38.61 8.28-1.77.76-.5.3M20.3 16.31c-5.93-.16-8.65.8-8.65.8"/><path fill="#4EA7DA" stroke="#4488D5" stroke-width="1.23" stroke-linecap="round" stroke-linejoin="round" stroke-miterlimit="10" d="M44.38 16.18s-4.85-.34-7.22 2.05l.7 9.32s3.38 2.2 6.52.86V16.18zM3.62 15.52l.16 12.94s6.45.52 7.93-2.32l-.06-9.03s-3.27-3.2-8.03-1.59z"/></svg>