<svg id="Layer_1" xmlns="http://www.w3.org/2000/svg" viewBox="-449 438 100 125"><style>.st0{fill:#0b3859}</style><path class="st0" d="M-352.6 527.1c-2.7-6.2-16.2-10.3-25.1-14.1-8.9-3.8-7.7-6.2-8-9.3 0-.5-.1-.9-.1-1.4 2.7-2.6 4.9-5.9 6.3-9.7 0 0 .1-.2.1-.3.3-.9.6-1.9.9-2.8 2-.4 3.2-2.6 3.7-4.6.5-.8 1.4-2.8 1.2-5.1-.3-2.9-1.5-4.3-2.8-4.8v-.1c.8-2.8 1.7-5.7 1.8-10.2.1-3.6-1-6.4-3-9.4-.3-.4-9.9-13-10-13.5-.3.6.1 3.4-1.8 2.8.2.1 1.2-1.5.3-3.4-.5 1.7-1.6 2.7-3.4 3 .8-.7 1.4-1.6 1.6-2.7-.9 1-2 1.3-3.4 1.1 0-.9.3-1.8 1-2.5-1.1.7-2.2 1.1-3.6 1.2-.3-1.1-.2-2.1.2-3.2-1.2 1.4-2.7 2.4-4.4 3.1-.7-.9-.7-2 0-3.2-.8 1.4-1.9 2.7-3.1 3.7-.4-.8-.6-1.7-.7-2.6-3.3 5.6-9.3 9.9-14.1 14.3-6.1 6.8-4.9 14.1-2.7 21.6-1.3.6-2.3 2-2.6 4.7-.2 2.3.7 4.3 1.2 5.1.5 2 1.7 4.2 3.8 4.6.3 1 .6 1.9.9 2.8 0 .1 0 .1.1.2v.1c1.5 3.9 3.8 7.2 6.5 9.8 0 .4 0 .9-.1 1.3-.3 3.2.6 5.5-8.3 9.3-8.9 3.8-22.3 7.9-25.1 14.1-2.7 6.2-1.7 9.8-1.7 9.8h96.1c-.1.1 1-3.6-1.7-9.7z"/></svg>