<?xml version="1.0" encoding="utf-8"?>
<!DOCTYPE svg PUBLIC "-//W3C//DTD SVG 1.1//EN" "http://www.w3.org/Graphics/SVG/1.1/DTD/svg11.dtd">
<svg xmlns="http://www.w3.org/2000/svg" xmlns:xlink="http://www.w3.org/1999/xlink" x="0px" y="0px" width="16px"
	 height="16px" viewBox="0 0 16 16" enable-background="new 0 0 16 16" xml:space="preserve">
	<path fill="#3B5998" d="M13,16c1.7,0,3-1.3,3-3V3c0-1.7-1.3-3-3-3H3C1.3,0,0,1.3,0,3v10c0,1.7,1.3,3,3,3H13z"/>
	<path fill="#FFFFFF" d="M7.8,16v-6H5.8V7.4h1.9v-1c0-1.8,1.3-3.4,3-3.4h2.1v2.6h-2.1c-0.2,0-0.5,0.3-0.5,0.7v1h2.6V10h-2.6v6H7.8z"/>
</svg>
