<svg xmlns="http://www.w3.org/2000/svg" viewBox="0 0 20 16">
  <path fill="#FFF" d="M1 1h18v14H1z"/>
  <path fill="#868D9F" d="M17.5 0h-15C1.1 0 0 1.2 0 2.8v10.5C0 14.8 1.1 16 2.5 16h15c1.4 0 2.5-1.2 2.5-2.8V2.8C20 1.2 18.9 0 17.5 0zM1.2 3.6l4.4 3.6-4.4 5.2V3.6zm17.6 9.6c0 .8-.6 1.4-1.3 1.4h-15c-.7 0-1.3-.6-1.3-1.4l4.9-5.6 2.7 2.3c.3.3.7.4 1.1.4.4 0 .8-.1 1.1-.4l2.7-2.3 5.1 5.6zm0-.8l-4.4-5.2 4.4-3.6v8.8zm-8-3.3c-.2.2-.5.3-.8.3-.3 0-.5-.1-.8-.3L6.7 7l-.6-.4-4.9-3.9c0-.7.6-1.3 1.3-1.3h15c.7 0 1.3.6 1.3 1.3l-8 6.4z"/>
</svg>
