<svg xmlns="http://www.w3.org/2000/svg" viewBox="0 0 1024 721" width="1024" height="721">
	<style>
		tspan { white-space:pre }
		.shp0 { fill: #ffffff } 
	</style>
	<path id="Layer" fill-rule="evenodd" class="shp0" d="M1013.02 156.28C1013.02 156.28 1023.22 238.94 1023.22 321.6L1023.22 399.09C1023.22 481.75 1013.02 564.41 1013.02 564.41C1013.02 564.41 1003.04 634.8 972.42 665.8C933.57 706.48 890.04 706.68 870.07 709.06C727.13 719.4 512.5 719.72 512.5 719.72C512.5 719.72 246.93 717.29 165.21 709.46C142.48 705.19 91.44 706.48 52.58 665.8C21.96 634.8 11.99 564.41 11.99 564.41C11.99 564.41 1.77 481.75 1.77 399.09L1.77 321.6C1.77 238.94 11.99 156.28 11.99 156.28C11.99 156.28 21.96 85.89 52.58 54.9C91.44 14.21 134.96 14.01 154.93 11.63C297.87 1.3 512.28 1.3 512.28 1.3L512.72 1.3C512.72 1.3 727.13 1.3 870.07 11.63C890.04 14.01 933.58 14.21 972.42 54.89C1003.04 85.89 1013.02 156.28 1013.02 156.28ZM683 350L407 206L407.05 493L683 350Z" />
</svg>