<svg xmlns="http://www.w3.org/2000/svg" viewBox="0 0 48 48"><style>.st2{fill:none;stroke:#bcbcbc;stroke-width:.5;stroke-miterlimit:10}.st3{fill:#4fa6d8}.st6{fill:#4985c5}</style><g id="Layer_1"><path class="st3" d="M14.2 25.2l-.3.3s2.3 3 5.6 2.9c3.3-.1 5.7-.2 7.6-3.1"/><g id="Candidate_1_" stroke="#4985c5" stroke-width="2" stroke-miterlimit="10"><path d="M27.4 25.4c-.3-.7-.8-1-1.1-1.3-.6-.5-1.7-.4-2.4-.8l-1-.5c-.4.6-1.4 1.4-2.6 1.3-1.7 0-2.5-1.4-2.5-1.4l-1.2.6c-.7.3-1.7.3-2.4.8-.3.2-.8.6-1.1 1.3" fill="#4fa6d8"/><path d="M20.4 24.2c3 0 3.3-3.9 3.4-5v-1.3c-.2-2-1.4-3-3.5-3-2 0-3.2 1.1-3.3 3v1.3c0 .8.4 5 3.4 5z" fill="#fff"/></g><g id="find_x2F_search_1_"><path class="st3" d="M28.1 32l8.9 8.8c.9.9 2.2.9 3 .1l.9-.9c.8-.8.8-2.2-.1-3l-6.7-6.7-2.1-2.2"/><path class="st6" d="M38.6 42c-.7 0-1.4-.3-2-.8l-8.9-8.8.8-.8 8.9 8.8c.7.7 1.7.7 2.3.1l.9-.9c.3-.3.4-.6.4-1 0-.5-.2-.9-.5-1.2l-6.2-6.2-2.6-2.6.8-.8 1.6 1.6 7.2 7.2c.5.5.8 1.3.8 2s-.3 1.3-.7 1.8l-.9.9c-.6.5-1.3.7-1.9.7z"/><g><path class="st6" d="M20.4 34.6c-3.9 0-7.5-1.5-10.2-4.2-5.6-5.6-5.6-14.8 0-20.4 2.7-2.7 6.3-4.2 10.2-4.2 3.9 0 7.5 1.5 10.2 4.2 5.6 5.6 5.6 14.8 0 20.4-2.7 2.7-6.3 4.2-10.2 4.2zm0-27.8c-3.6 0-6.9 1.4-9.4 3.9a13.4 13.4 0 0 0 0 18.9c2.5 2.5 5.9 3.9 9.4 3.9 3.6 0 6.9-1.4 9.4-3.9a13.4 13.4 0 0 0 0-18.9c-2.5-2.5-5.8-3.9-9.4-3.9zm0 22.6c-2.5 0-4.8-1-6.6-2.7a8.98 8.98 0 0 1-2.7-6.6c0-2.5 1-4.8 2.7-6.6 1.8-1.8 4.1-2.7 6.6-2.7s4.8 1 6.6 2.7c1.8 1.8 2.7 4.1 2.7 6.6s-1 4.8-2.7 6.6a9.56 9.56 0 0 1-6.6 2.7zm0-17.5c-2.2 0-4.2.9-5.8 2.4a8.25 8.25 0 0 0-2.4 5.8c0 2.2.9 4.2 2.4 5.8 1.5 1.5 3.6 2.4 5.8 2.4 2.2 0 4.2-.9 5.8-2.4 1.5-1.5 2.4-3.6 2.4-5.8 0-2.2-.9-4.2-2.4-5.8a8.25 8.25 0 0 0-5.8-2.4z"/></g></g></g></svg>