<svg id="Layer_1" data-name="Layer 1" xmlns="http://www.w3.org/2000/svg" xmlns:xlink="http://www.w3.org/1999/xlink" viewBox="0 0 240.3 71.42"><defs><style>.cls-1{fill:none;}.cls-2{fill:#595957;}.cls-3{fill:#52267f;}.cls-4{clip-path:url(#clip-path);}.cls-5{fill:#51267e;}.cls-6{fill:#52267e;}.cls-7{fill:#53267e;}.cls-8{fill:#54267d;}.cls-9{fill:#55267d;}.cls-10{fill:#56267d;}.cls-11{fill:#57267d;}.cls-12{fill:#58267d;}.cls-13{fill:#59267d;}.cls-14{fill:#5a267c;}.cls-15{fill:#5b267c;}.cls-16{fill:#5c267c;}.cls-17{fill:#5d267c;}.cls-18{fill:#5e267c;}.cls-19{fill:#5f267b;}.cls-20{fill:#60267b;}.cls-21{fill:#61267b;}.cls-22{fill:#62267b;}.cls-23{fill:#63267b;}.cls-24{fill:#64277b;}.cls-25{fill:#65277a;}.cls-26{fill:#66277a;}.cls-27{fill:#67277a;}.cls-28{fill:#68277a;}.cls-29{fill:#69277a;}.cls-30{fill:#6a2779;}.cls-31{fill:#6b2779;}.cls-32{fill:#6c2779;}.cls-33{fill:#6d2779;}.cls-34{fill:#6e2779;}.cls-35{fill:#6f2779;}.cls-36{fill:#702778;}.cls-37{fill:#712778;}.cls-38{fill:#722778;}.cls-39{fill:#732778;}.cls-40{fill:#742778;}.cls-41{fill:#752777;}.cls-42{fill:#762777;}.cls-43{fill:#772777;}.cls-44{fill:#782777;}.cls-45{fill:#792777;}.cls-46{fill:#7a2777;}.cls-47{fill:#7b2776;}.cls-48{fill:#7c2776;}.cls-49{fill:#7d2776;}.cls-50{fill:#7e2776;}.cls-51{fill:#7f2776;}.cls-52{fill:#802775;}.cls-53{fill:#812775;}.cls-54{fill:#822775;}.cls-55{fill:#832775;}.cls-56{fill:#842775;}.cls-57{fill:#852775;}.cls-58{fill:#862774;}.cls-59{fill:#872774;}.cls-60{fill:#882774;}.cls-61{fill:#892874;}.cls-62{fill:#8a2874;}.cls-63{fill:#8b2873;}.cls-64{fill:#8c2873;}.cls-65{fill:#8d2873;}.cls-66{fill:#8e2873;}.cls-67{fill:#8f2873;}.cls-68{fill:#902873;}.cls-69{fill:#912872;}.cls-70{fill:#922872;}.cls-71{fill:#932872;}.cls-72{fill:#942872;}.cls-73{fill:#952872;}.cls-74{fill:#962871;}.cls-75{fill:#972871;}.cls-76{fill:#982871;}.cls-77{fill:#992871;}.cls-78{fill:#9a2871;}.cls-79{fill:#9c2871;}.cls-80{fill:#9d2870;}.cls-81{fill:#9e2870;}.cls-82{fill:#9f2870;}.cls-83{fill:#a02870;}.cls-84{fill:#a12870;}.cls-85{fill:#a2286f;}.cls-86{fill:#a3286f;}.cls-87{fill:#a4286f;}.cls-88{fill:#a5286f;}.cls-89{fill:#a6286f;}.cls-90{fill:#a7286e;}.cls-91{fill:#a8286e;}.cls-92{fill:#a9286e;}.cls-93{fill:#aa286e;}.cls-94{fill:#ab286e;}.cls-95{fill:#ac286e;}.cls-96{fill:#ad286d;}.cls-97{fill:#ae286d;}.cls-98{fill:#af296d;}.cls-99{fill:#b0296d;}.cls-100{fill:#b1296d;}.cls-101{fill:#b2296c;}.cls-102{fill:#b3296c;}.cls-103{fill:#b4296c;}.cls-104{fill:#b5296c;}.cls-105{fill:#b6296c;}.cls-106{fill:#b7296c;}.cls-107{fill:#b8296b;}.cls-108{fill:#b9296b;}.cls-109{fill:#ba296b;}.cls-110{fill:#bb296b;}.cls-111{fill:#bc296b;}.cls-112{fill:#bd296a;}.cls-113{fill:#be296a;}.cls-114{fill:#bf296a;}.cls-115{fill:#c0296a;}.cls-116{fill:#c1296a;}.cls-117{fill:#c2296a;}.cls-118{fill:#c32969;}.cls-119{fill:#c42969;}.cls-120{fill:#c52969;}.cls-121{fill:#c62969;}.cls-122{fill:#c72969;}.cls-123{fill:#c82968;}.cls-124{fill:#c92968;}.cls-125{fill:#ca2968;}.cls-126{fill:#cb2968;}.cls-127{fill:#cc2968;}.cls-128{fill:#cd2968;}.cls-129{fill:#ce2967;}.cls-130{fill:#cf2967;}.cls-131{fill:#d02967;}.cls-132{fill:#d12967;}.cls-133{fill:#d22967;}.cls-134{fill:#d32966;}.cls-135{fill:#d42a66;}.cls-136{fill:#d52a66;}.cls-137{fill:#d62a66;}.cls-138{fill:#d72a66;}.cls-139{fill:#d82a66;}.cls-140{fill:#d92a65;}.cls-141{fill:#da2a65;}.cls-142{fill:#db2a65;}.cls-143{fill:#dc2a65;}.cls-144{fill:#dd2a65;}.cls-145{fill:#de2a64;}.cls-146{fill:#df2a64;}.cls-147{fill:#e02a64;}.cls-148{fill:#e12a64;}.cls-149{fill:#e22a64;}.cls-150{fill:#e32a64;}.cls-151{fill:#e42a63;}.cls-152{fill:#e52a63;}.cls-153{fill:#e62a63;}.cls-154{fill:#e62b62;}.cls-155{fill:#e62c62;}.cls-156{fill:#e62d61;}.cls-157{fill:#e72e61;}.cls-158{fill:#e72f60;}.cls-159{fill:#e73060;}.cls-160{fill:#e7315f;}.cls-161{fill:#e7325f;}.cls-162{fill:#e7335e;}.cls-163{fill:#e7345d;}.cls-164{fill:#e7355d;}.cls-165{fill:#e8365c;}.cls-166{fill:#e8375c;}.cls-167{fill:#e8385b;}.cls-168{fill:#e8395b;}.cls-169{fill:#e83a5a;}.cls-170{fill:#e83b59;}.cls-171{fill:#e83c59;}.cls-172{fill:#e83d58;}.cls-173{fill:#e93e58;}.cls-174{fill:#e93f57;}.cls-175{fill:#e94057;}.cls-176{fill:#e94156;}.cls-177{fill:#e94256;}.cls-178{fill:#e94355;}.cls-179{fill:#e94454;}.cls-180{fill:#ea4554;}.cls-181{fill:#ea4653;}.cls-182{fill:#ea4753;}.cls-183{fill:#ea4852;}.cls-184{fill:#ea4952;}.cls-185{fill:#ea4a51;}.cls-186{fill:#ea4b50;}.cls-187{fill:#ea4c50;}.cls-188{fill:#eb4d4f;}.cls-189{fill:#eb4e4f;}.cls-190{fill:#eb4f4e;}.cls-191{fill:#eb504e;}.cls-192{fill:#eb514d;}.cls-193{fill:#eb524d;}.cls-194{fill:#eb534c;}.cls-195{fill:#eb544b;}.cls-196{fill:#ec554b;}.cls-197{fill:#ec564a;}.cls-198{fill:#ec574a;}.cls-199{fill:#ec5849;}.cls-200{fill:#ec5949;}.cls-201{fill:#ec5a48;}.cls-202{fill:#ec5b47;}.cls-203{fill:#ed5c47;}.cls-204{fill:#ed5d46;}.cls-205{fill:#ed5e46;}.cls-206{fill:#ed5f45;}.cls-207{fill:#ed6045;}.cls-208{fill:#ed6144;}.cls-209{fill:#ed6244;}.cls-210{fill:#ed6343;}.cls-211{fill:#ee6442;}.cls-212{fill:#ee6542;}.cls-213{fill:#ee6641;}.cls-214{fill:#ee6741;}.cls-215{fill:#ee6840;}.cls-216{fill:#ee6940;}.cls-217{fill:#ee6a3f;}.cls-218{fill:#ef6c3f;}.cls-219{fill:#ef6d3e;}.cls-220{fill:#ef6e3d;}.cls-221{fill:#ef6f3d;}.cls-222{fill:#ef703c;}.cls-223{fill:#ef713c;}.cls-224{fill:#ef723b;}.cls-225{fill:#ef733b;}.cls-226{fill:#f0743a;}.cls-227{fill:#f07539;}.cls-228{fill:#f07639;}.cls-229{fill:#f07738;}.cls-230{fill:#f07838;}.cls-231{fill:#f07937;}.cls-232{fill:#f07a37;}.cls-233{fill:#f07b36;}.cls-234{fill:#f17c36;}.cls-235{fill:#f17d35;}.cls-236{fill:#f17e34;}.cls-237{fill:#f17f34;}.cls-238{fill:#f18033;}.cls-239{fill:#f18133;}.cls-240{fill:#f18232;}.cls-241{fill:#f28332;}.cls-242{fill:#f28431;}.cls-243{fill:#f28530;}.cls-244{fill:#f28630;}.cls-245{fill:#f2872f;}.cls-246{fill:#f2882f;}.cls-247{fill:#f2892e;}.cls-248{fill:#f28a2e;}.cls-249{fill:#f38b2d;}.cls-250{fill:#f38c2d;}.cls-251{fill:#f38d2c;}.cls-252{fill:#f38e2b;}.cls-253{fill:#f38f2b;}.cls-254{fill:#f3902a;}.cls-255{fill:#f3912a;}.cls-256{fill:#f39229;}.cls-257{fill:#f49329;}.cls-258{fill:#f49428;}.cls-259{fill:#f49527;}.cls-260{fill:#f49627;}.cls-261{fill:#f49726;}.cls-262{fill:#f49826;}.cls-263{fill:#f49925;}.cls-264{fill:#f59a25;}.cls-265{fill:#f59b24;}.cls-266{fill:#f59c24;}.cls-267{fill:#f59d23;}.cls-268{fill:#f59e22;}.cls-269{fill:#f59f22;}.cls-270{fill:#f5a021;}.cls-271{fill:#f5a121;}.cls-272{fill:#f6a220;}.cls-273{fill:#f6a320;}.cls-274{fill:#f6a41f;}.cls-275{fill:#f6a51e;}.cls-276{fill:#f6a61e;}.cls-277{fill:#f6a71d;}.cls-278{fill:#f6a81d;}.cls-279{fill:#f6a91c;}.cls-280{fill:#f7aa1c;}.cls-281{fill:#f7ab1b;}.cls-282{fill:#f7ac1b;}.cls-283{fill:#f7ad1a;}.cls-284{clip-path:url(#clip-path-2);}</style><clipPath id="clip-path"><path class="cls-1" d="M181.68,70.05a4,4,0,0,1-1.44-.82,1.91,1.91,0,0,1-.54-.87,3.49,3.49,0,0,1-.12-.75V59.48a3.92,3.92,0,0,1,.11-.75,1.86,1.86,0,0,1,.54-.87,3.9,3.9,0,0,1,1.44-.83,7.92,7.92,0,0,1,2.33-.37v-1a8.64,8.64,0,0,0-2.68.42,4.84,4.84,0,0,0-1.81,1.07,2.77,2.77,0,0,0-.8,1.36,4.22,4.22,0,0,0-.14,1l0,8.13a4.22,4.22,0,0,0,.14,1,2.85,2.85,0,0,0,.8,1.36A4.81,4.81,0,0,0,181.34,71a8.64,8.64,0,0,0,2.68.42v-1A7.77,7.77,0,0,1,181.68,70.05Z"/></clipPath><clipPath id="clip-path-2"><path class="cls-1" d="M190.28,58.47a2.87,2.87,0,0,0-.81-1.34,4.84,4.84,0,0,0-1.81-1.06,8.5,8.5,0,0,0-2.59-.41v1a7.5,7.5,0,0,1,2.24.35,3.9,3.9,0,0,1,1.45.82,1.9,1.9,0,0,1,.53.86,3.56,3.56,0,0,1,.12.76l0,8.13a3.56,3.56,0,0,1-.12.76,1.9,1.9,0,0,1-.53.86,4.08,4.08,0,0,1-1.44.83,7.87,7.87,0,0,1-2.25.36v1a8.72,8.72,0,0,0,2.58-.42,4.89,4.89,0,0,0,1.81-1.07,2.81,2.81,0,0,0,.8-1.34,3.8,3.8,0,0,0,.14-1V59.46A4.93,4.93,0,0,0,190.28,58.47Z"/></clipPath></defs><title>retailjobs-logo</title><path class="cls-2" d="M137.16,43.11a9.38,9.38,0,0,0,3.1-.5,5.78,5.78,0,0,0,2-1.21,3.6,3.6,0,0,0,1-1.57,6.28,6.28,0,0,0,.24-1.52l.07-37.24h5.64l-.08,38.33a12.54,12.54,0,0,1-.29,2.28,6.27,6.27,0,0,1-1.5,2.78,9.68,9.68,0,0,1-3.68,2.44,17.88,17.88,0,0,1-6.53,1Z"/><path class="cls-3" d="M130.26,47.94a17.84,17.84,0,0,1-6.53-1,9.68,9.68,0,0,1-3.68-2.44,6.17,6.17,0,0,1-1.5-2.78,11.86,11.86,0,0,1-.3-2.28l-.07-38.33h5.64l.07,37.24a5.49,5.49,0,0,0,.24,1.52,3.51,3.51,0,0,0,1,1.57,5.69,5.69,0,0,0,2,1.21,9.17,9.17,0,0,0,3.1.5Z"/><path class="cls-3" d="M0,47.3V19.89H5.76v4.27l.46.1A17.79,17.79,0,0,1,8.3,20.87a4.68,4.68,0,0,1,3.17-1.75h0a1.25,1.25,0,0,0,.31,0l.33,0h.33l.05,0a.31.31,0,0,1,.12,0h.24a10.71,10.71,0,0,1,1.1.06c.38.05.77.12,1.16.21l1.36.44,1.16.42-2.17,4.93a4,4,0,0,0-.86-.42,10.28,10.28,0,0,0-1.22-.36,3.93,3.93,0,0,0-.84-.18l-.77,0h-.44a2.18,2.18,0,0,0-.55.07,2,2,0,0,0-.54.08l-.45.14a5.05,5.05,0,0,0-2.86,2.73,14.17,14.17,0,0,0-1.11,4c0,.55-.08,1.11-.1,1.66s0,1.05,0,1.57v.24a.82.82,0,0,0,.07.29V47.3Z"/><path class="cls-3" d="M105.89,47.3V20h5.7V47.3Zm3-35.45a2.92,2.92,0,0,1-2.52-1.08,4.11,4.11,0,0,1-.83-2.5V7.93a4.37,4.37,0,0,1,1-2.28,2.84,2.84,0,0,1,2.39-1,2.94,2.94,0,0,1,2.43,1,4.28,4.28,0,0,1,1,2.3v.32a4,4,0,0,1-.87,2.5A3,3,0,0,1,108.84,11.85Z"/><path class="cls-2" d="M179.28,23.21a14.66,14.66,0,0,0-4.82-3.11A15.93,15.93,0,0,0,168.52,19a15.68,15.68,0,0,0-6,1.15,14.66,14.66,0,0,0-4.78,3.12,15,15,0,0,0-3.2,4.7,15.12,15.12,0,0,0,0,11.71,15.13,15.13,0,0,0,3.22,4.69,14.76,14.76,0,0,0,4.79,3.1,16.26,16.26,0,0,0,11.91,0,14.48,14.48,0,0,0,4.81-3.12,14.72,14.72,0,0,0,3.2-4.71,14.22,14.22,0,0,0,1.17-5.85,14.4,14.4,0,0,0-1.19-5.85A14.8,14.8,0,0,0,179.28,23.21Zm-1.79,14.27a10.16,10.16,0,0,1-2.05,3.09,9.64,9.64,0,0,1-13.76,0,10.15,10.15,0,0,1-2.06-3.08,9.2,9.2,0,0,1-.77-3.71,9.42,9.42,0,0,1,.76-3.75,9.54,9.54,0,0,1,2-3.09,9.72,9.72,0,0,1,6.87-2.87,9.58,9.58,0,0,1,3.79.77,9.92,9.92,0,0,1,3.09,2.07A9.75,9.75,0,0,1,177.48,30a9.37,9.37,0,0,1,.76,3.74A9.2,9.2,0,0,1,177.49,37.48Z"/><path class="cls-2" d="M213.4,23.33a13.32,13.32,0,0,0-4.19-3.2,12.36,12.36,0,0,0-5.55-1.21A10.85,10.85,0,0,0,198,20.41a13.32,13.32,0,0,0-4.17,4h-.13l0-24.4h-5.46l.1,47.58h5.45V43.24h.12A12.78,12.78,0,0,0,198,47.06a10.73,10.73,0,0,0,5.51,1.45,13,13,0,0,0,5.79-1.23A12.75,12.75,0,0,0,213.5,44a14.88,14.88,0,0,0,2.62-4.82,17.59,17.59,0,0,0,.9-5.71,16.17,16.17,0,0,0-1-5.49A14.33,14.33,0,0,0,213.4,23.33ZM211,37.53a9.68,9.68,0,0,1-1.78,3.21A8.48,8.48,0,0,1,206.31,43a9,9,0,0,1-3.93.81,8.43,8.43,0,0,1-3.85-.83,8,8,0,0,1-2.79-2.25A10.81,10.81,0,0,1,194,37.45a12,12,0,0,1-.61-3.78,11.67,11.67,0,0,1,.6-3.74,10,10,0,0,1,1.75-3.18,8.33,8.33,0,0,1,6.6-3.08,9.23,9.23,0,0,1,3.91.8,8.52,8.52,0,0,1,2.91,2.16A9.2,9.2,0,0,1,211,29.81a11.83,11.83,0,0,1,.62,3.83A12.29,12.29,0,0,1,211,37.53Z"/><path class="cls-2" d="M239.75,36.35a7.81,7.81,0,0,0-1.46-2.17,9.28,9.28,0,0,0-2.09-1.62,21.64,21.64,0,0,0-2.46-1.22l-2.46-1a14.06,14.06,0,0,1-2.09-1.1,6.8,6.8,0,0,1-1.49-1.27,2.46,2.46,0,0,1-.58-1.58,2.49,2.49,0,0,1,.91-2,3.13,3.13,0,0,1,2.06-.78,3.6,3.6,0,0,1,2.18.71,4.6,4.6,0,0,1,1.46,1.72l4.42-2.32A9.1,9.1,0,0,0,235,20.17a8.22,8.22,0,0,0-4.6-1.3,8.45,8.45,0,0,0-3.28.63,8.29,8.29,0,0,0-2.63,1.73,8.42,8.42,0,0,0-1.78,2.59A7.67,7.67,0,0,0,222,27a6.75,6.75,0,0,0,.4,2.46,5.48,5.48,0,0,0,1.12,1.84,8.53,8.53,0,0,0,1.73,1.45A20.71,20.71,0,0,0,227.5,34l5.34,2.78A7.11,7.11,0,0,1,234.33,38a2.68,2.68,0,0,1,.51,1.75,3.5,3.5,0,0,1-1.26,2.85,4.54,4.54,0,0,1-3,1.08,4.66,4.66,0,0,1-3.12-1,9,9,0,0,1-2-2.55l-4.65,2.09a8.19,8.19,0,0,0,1.57,2.64,10.4,10.4,0,0,0,2.37,2,11.71,11.71,0,0,0,2.82,1.21,11.58,11.58,0,0,0,3.06.41,10.46,10.46,0,0,0,3.76-.69,9.52,9.52,0,0,0,5.2-4.88,8.65,8.65,0,0,0,.78-3.66A7,7,0,0,0,239.75,36.35Z"/><path class="cls-3" d="M71.87,27.9a16.78,16.78,0,0,0-1,5.5,17.81,17.81,0,0,0,.91,5.7,14.6,14.6,0,0,0,2.62,4.82,12.58,12.58,0,0,0,4.24,3.31,13.24,13.24,0,0,0,5.78,1.23A10.74,10.74,0,0,0,90,47a12.76,12.76,0,0,0,4.12-3.82h.13v4.33h5.45L99.77,20H94.32l0,4.36h-.12a13.36,13.36,0,0,0-4.18-4,10.85,10.85,0,0,0-5.69-1.49,12.16,12.16,0,0,0-5.54,1.2,13.34,13.34,0,0,0-4.19,3.21A14.12,14.12,0,0,0,71.87,27.9Zm4.51,5.69A12.05,12.05,0,0,1,77,29.76a9.54,9.54,0,0,1,1.79-3.18,8.56,8.56,0,0,1,2.92-2.16,9.23,9.23,0,0,1,3.91-.8,8.28,8.28,0,0,1,3.78.84,8.59,8.59,0,0,1,2.82,2.24A10,10,0,0,1,94,29.88a11.36,11.36,0,0,1,.59,3.74,11.63,11.63,0,0,1-.61,3.77,10.51,10.51,0,0,1-1.73,3.24,8.07,8.07,0,0,1-2.79,2.25,8.59,8.59,0,0,1-3.85.83,9.36,9.36,0,0,1-3.94-.81,8.47,8.47,0,0,1-2.87-2.21A9.51,9.51,0,0,1,77,37.48,12.05,12.05,0,0,1,76.38,33.59Z"/><path class="cls-3" d="M67,48.09a17.58,17.58,0,0,1-6.52-1,9.64,9.64,0,0,1-3.69-2.44,6.12,6.12,0,0,1-1.5-2.78,11.78,11.78,0,0,1-.3-2.27L54.93,1.24h5.64l.07,37.23A5.44,5.44,0,0,0,60.88,40a3.69,3.69,0,0,0,1,1.58,6,6,0,0,0,2,1.21,9.49,9.49,0,0,0,3.1.49Z"/><polygon class="cls-3" points="66.85 25.05 49.73 25 49.73 20.26 66.85 20.32 66.85 25.05"/><path class="cls-3" d="M44.11,23.09a11.29,11.29,0,0,0-4-3.14A13.16,13.16,0,0,0,34.3,18.8a14.23,14.23,0,0,0-5.91,1.14,11.79,11.79,0,0,0-4.22,3.15,13.86,13.86,0,0,0-2.54,4.76,19.9,19.9,0,0,0-.85,5.95,16.9,16.9,0,0,0,1,5.76,14.1,14.1,0,0,0,2.71,4.63,12.53,12.53,0,0,0,4.29,3.08,14,14,0,0,0,5.73,1.12,14.65,14.65,0,0,0,7.52-2,14.1,14.1,0,0,0,5.36-5.62l-4.52-2.55a15.12,15.12,0,0,1-3.38,4,7.72,7.72,0,0,1-4.93,1.46,7.52,7.52,0,0,1-3.44-.76,8.24,8.24,0,0,1-2.65-2,9.14,9.14,0,0,1-1.7-2.94,10,10,0,0,1-.6-3.44l21.21,0v-.83a20.89,20.89,0,0,0-.81-5.8A13.51,13.51,0,0,0,44.11,23.09ZM26.42,30.4a8.31,8.31,0,0,1,2.6-5,7.63,7.63,0,0,1,5.29-2,7.25,7.25,0,0,1,5.2,1.89A8.51,8.51,0,0,1,42,30.37Z"/><path class="cls-2" d="M181.86,66.14a1.91,1.91,0,0,0,.06.41,1.1,1.1,0,0,0,.26.5,1.65,1.65,0,0,0,.65.44,3.11,3.11,0,0,0,1.18.18v-1a1.66,1.66,0,0,1-.56-.08.88.88,0,0,1-.32-.2.54.54,0,0,1-.16-.24,1.13,1.13,0,0,1,0-.25l0-6.47h-1.07Z"/><path class="cls-2" d="M187.23,66.13a2.63,2.63,0,0,1,0,.41,1.1,1.1,0,0,1-.26.5,1.72,1.72,0,0,1-.65.44,2.9,2.9,0,0,1-1.18.19v-1a1.46,1.46,0,0,0,.56-.09,1,1,0,0,0,.32-.19.51.51,0,0,0,.15-.25.75.75,0,0,0,0-.24V59.48h1.07Z"/><path class="cls-2" d="M193.79,66.12a2.4,2.4,0,0,0,.05.4,1.16,1.16,0,0,0,.27.51,1.68,1.68,0,0,0,.64.44,3.17,3.17,0,0,0,1.19.18v-1a1.73,1.73,0,0,1-.57-.08,1.1,1.1,0,0,1-.32-.2.69.69,0,0,1-.15-.24,1.18,1.18,0,0,1,0-.25V59.46h-1.07Z"/><path class="cls-2" d="M200.65,63.45a1.85,1.85,0,0,0-.69-.54,2.35,2.35,0,0,0-1-.2,2.43,2.43,0,0,0-1,.2,2,2,0,0,0-.73.54,2.49,2.49,0,0,0-.44.82,3.4,3.4,0,0,0-.14,1,3,3,0,0,0,.16,1,2.4,2.4,0,0,0,.47.79,2,2,0,0,0,.74.53,2.38,2.38,0,0,0,1,.2,2.56,2.56,0,0,0,1.3-.35,2.39,2.39,0,0,0,.92-1l-.78-.44a2.71,2.71,0,0,1-.58.69A1.36,1.36,0,0,1,199,67a1.42,1.42,0,0,1-.59-.13,1.47,1.47,0,0,1-.46-.36,1.64,1.64,0,0,1-.29-.5,1.7,1.7,0,0,1-.1-.59h3.65v-.14a3.55,3.55,0,0,0-.14-1A2.23,2.23,0,0,0,200.65,63.45Zm-3,1.26a1.43,1.43,0,0,1,.44-.86,1.29,1.29,0,0,1,.91-.34,1.25,1.25,0,0,1,.9.33,1.44,1.44,0,0,1,.43.86Z"/><path class="cls-2" d="M202.65,60a.58.58,0,0,0-.45.19.65.65,0,0,0,0,.9.68.68,0,0,0,.45.17.61.61,0,0,0,.45-.18.56.56,0,0,0,.19-.44.66.66,0,0,0-.19-.46A.61.61,0,0,0,202.65,60Z"/><rect class="cls-2" x="202.2" y="62.85" width="0.92" height="4.79" transform="matrix(1, 0, 0, 1, -0.12, 0.38)"/><path class="cls-2" d="M207.28,65.34a1.35,1.35,0,0,0-.35-.28,3.17,3.17,0,0,0-.41-.21l-.42-.18a2.29,2.29,0,0,1-.35-.19,1.09,1.09,0,0,1-.25-.22.39.39,0,0,1-.1-.27.43.43,0,0,1,.15-.34.51.51,0,0,1,.35-.13.61.61,0,0,1,.37.12.7.7,0,0,1,.24.3l.75-.4a1.61,1.61,0,0,0-.53-.62,1.39,1.39,0,0,0-.78-.22,1.42,1.42,0,0,0-.55.11,1.37,1.37,0,0,0-.45.3,1.55,1.55,0,0,0-.3.44,1.41,1.41,0,0,0-.11.54,1.11,1.11,0,0,0,.07.43.89.89,0,0,0,.19.31,1.16,1.16,0,0,0,.29.25,3.28,3.28,0,0,0,.37.22l.9.48a.93.93,0,0,1,.25.22.45.45,0,0,1,.09.3.62.62,0,0,1-.21.49A.84.84,0,0,1,206,67a.76.76,0,0,1-.53-.18,1.4,1.4,0,0,1-.34-.44l-.79.36a1.43,1.43,0,0,0,.27.46,1.6,1.6,0,0,0,.4.33,1.79,1.79,0,0,0,.47.21,1.81,1.81,0,0,0,.52.07,1.64,1.64,0,0,0,.63-.12,1.49,1.49,0,0,0,.52-.33,1.57,1.57,0,0,0,.36-.51,1.45,1.45,0,0,0,.13-.63,1.22,1.22,0,0,0-.09-.49A1.05,1.05,0,0,0,207.28,65.34Z"/><path class="cls-2" d="M211.61,65.48a3.31,3.31,0,0,1,0,.55,1.33,1.33,0,0,1-.17.46,1,1,0,0,1-.34.32,1.12,1.12,0,0,1-.55.12,1.09,1.09,0,0,1-.55-.12.81.81,0,0,1-.34-.32,1.26,1.26,0,0,1-.17-.46,3.1,3.1,0,0,1,0-.54V62.84h-.92v2.75a3.09,3.09,0,0,0,.12.89,1.88,1.88,0,0,0,.37.7,1.68,1.68,0,0,0,.62.45,2.81,2.81,0,0,0,1.84,0,1.49,1.49,0,0,0,.62-.45,1.77,1.77,0,0,0,.37-.69,3.58,3.58,0,0,0,.11-.9V62.83h-.92Z"/><path class="cls-2" d="M216.07,62.68a1.26,1.26,0,0,0-.79.25,1.44,1.44,0,0,0-.51.67h0v-.77h-.92v4.79h.92V65.26c0-.19,0-.39,0-.59a2.34,2.34,0,0,1,.15-.55,1.09,1.09,0,0,1,.34-.4,1,1,0,0,1,.59-.16,1,1,0,0,1,.3,0,.68.68,0,0,1,.26.15l.42-.84a1.49,1.49,0,0,0-.36-.17A1.34,1.34,0,0,0,216.07,62.68Z"/><path class="cls-2" d="M221,63.41a2,2,0,0,0-.7-.54,2.33,2.33,0,0,0-1-.2,2.47,2.47,0,0,0-1,.2,2,2,0,0,0-.72.54,2.24,2.24,0,0,0-.44.82,3.42,3.42,0,0,0-.15,1,2.94,2.94,0,0,0,.17,1,2.53,2.53,0,0,0,.46.8,2.22,2.22,0,0,0,.74.53,2.57,2.57,0,0,0,1,.19,2.5,2.5,0,0,0,1.29-.35,2.39,2.39,0,0,0,.92-1l-.77-.43a2.65,2.65,0,0,1-.59.68,1.29,1.29,0,0,1-.84.25,1.32,1.32,0,0,1-.6-.13,1.56,1.56,0,0,1-.45-.35A1.63,1.63,0,0,1,218,66a2,2,0,0,1-.1-.59h3.65v-.14a3.22,3.22,0,0,0-.14-1A2.38,2.38,0,0,0,221,63.41ZM218,64.67a1.44,1.44,0,0,1,.45-.86,1.31,1.31,0,0,1,.91-.34,1.21,1.21,0,0,1,.89.33,1.45,1.45,0,0,1,.43.87Z"/><path class="cls-2" d="M223.58,65.76v.11a1.13,1.13,0,0,1,0,.25.73.73,0,0,1-.15.25,1,1,0,0,1-.33.19,1.42,1.42,0,0,1-.56.09v.95a3,3,0,0,0,1.19-.19,1.6,1.6,0,0,0,.64-.44,1.18,1.18,0,0,0,.27-.5,2.63,2.63,0,0,0,0-.41l0-6.66h-1.07Z"/><path class="cls-2" d="M230,63.39a2.5,2.5,0,0,0-.81-.54,2.63,2.63,0,0,0-1-.19,2.59,2.59,0,0,0-1,.19,2.46,2.46,0,0,0-.8.54,2.5,2.5,0,0,0-.54.81,2.43,2.43,0,0,0-.2,1,2.6,2.6,0,0,0,.2,1,2.68,2.68,0,0,0,.54.8,2.5,2.5,0,0,0,.81.54,2.59,2.59,0,0,0,1,.19,2.54,2.54,0,0,0,1-.19A2.44,2.44,0,0,0,230,67a2.87,2.87,0,0,0,.54-.81,2.59,2.59,0,0,0,.19-1,2.43,2.43,0,0,0-.2-1A2.36,2.36,0,0,0,230,63.39Zm-.3,2.45a1.75,1.75,0,0,1-.35.53,1.59,1.59,0,0,1-.52.37,1.53,1.53,0,0,1-.64.13,1.56,1.56,0,0,1-.64-.13,1.73,1.73,0,0,1-.52-.36,1.88,1.88,0,0,1-.35-.53,1.56,1.56,0,0,1-.13-.64,1.61,1.61,0,0,1,.13-.65,1.61,1.61,0,0,1,.86-.89,1.59,1.59,0,0,1,.64-.13,1.53,1.53,0,0,1,.64.13,1.77,1.77,0,0,1,.53.36,1.61,1.61,0,0,1,.34.53,1.56,1.56,0,0,1,.13.64A1.69,1.69,0,0,1,229.7,65.84Z"/><path class="cls-2" d="M235.76,63.41a2.29,2.29,0,0,0-.71-.56,2.2,2.2,0,0,0-.94-.2,1.81,1.81,0,0,0-1,.25,2.19,2.19,0,0,0-.7.69h0v-4.2h-.92l0,8.19h.92v-.75h0a2.07,2.07,0,0,0,.69.66,1.75,1.75,0,0,0,.93.25,2.17,2.17,0,0,0,1-.21,2.08,2.08,0,0,0,.71-.57,2.47,2.47,0,0,0,.45-.83,3.19,3.19,0,0,0,.15-1,2.79,2.79,0,0,0-.16-1A2.54,2.54,0,0,0,235.76,63.41Zm-.41,2.44a1.72,1.72,0,0,1-.3.55,1.51,1.51,0,0,1-.49.38,1.39,1.39,0,0,1-.66.14,1.35,1.35,0,0,1-.65-.14,1.19,1.19,0,0,1-.47-.39,1.83,1.83,0,0,1-.3-.55,2.38,2.38,0,0,1-.1-.65,2,2,0,0,1,.1-.65,1.83,1.83,0,0,1,.3-.55,1.57,1.57,0,0,1,.47-.38,1.47,1.47,0,0,1,.64-.15,1.53,1.53,0,0,1,.66.14A1.41,1.41,0,0,1,235,64a1.57,1.57,0,0,1,.31.55,2.39,2.39,0,0,1,.1.66A2.09,2.09,0,0,1,235.35,65.85Z"/><path class="cls-2" d="M240.21,65.65a1.67,1.67,0,0,0-.25-.38,2,2,0,0,0-.35-.28l-.42-.21-.41-.17a2.42,2.42,0,0,1-.36-.19,1.36,1.36,0,0,1-.25-.22.44.44,0,0,1-.09-.27.43.43,0,0,1,.15-.34.51.51,0,0,1,.35-.13.58.58,0,0,1,.36.12.76.76,0,0,1,.25.29l.75-.4a1.59,1.59,0,0,0-.54-.61,1.34,1.34,0,0,0-.77-.22,1.3,1.3,0,0,0-.56.11,1.35,1.35,0,0,0-.44.29,1.37,1.37,0,0,0-.3.45,1.24,1.24,0,0,0-.11.54,1.35,1.35,0,0,0,.06.43,1.08,1.08,0,0,0,.19.31,1.48,1.48,0,0,0,.3.25,2.58,2.58,0,0,0,.37.22l.9.48a.92.92,0,0,1,.25.22.45.45,0,0,1,.09.3.62.62,0,0,1-.21.49.8.8,0,0,1-.52.18.74.74,0,0,1-.52-.17,1.42,1.42,0,0,1-.35-.44l-.78.36a1.61,1.61,0,0,0,.26.46,1.8,1.8,0,0,0,.4.33,2.06,2.06,0,0,0,.48.21,1.81,1.81,0,0,0,.52.07,1.68,1.68,0,0,0,.63-.12,1.65,1.65,0,0,0,.52-.33,1.57,1.57,0,0,0,.36-.51,1.45,1.45,0,0,0,.13-.63A1.22,1.22,0,0,0,240.21,65.65Z"/><g class="cls-4"><rect class="cls-5" x="178.56" y="71.37" width="5.46" height="0.05"/><rect class="cls-6" x="178.56" y="71.32" width="5.46" height="0.05"/><rect class="cls-7" x="178.56" y="71.27" width="5.46" height="0.05"/><rect class="cls-8" x="178.56" y="71.22" width="5.46" height="0.05"/><rect class="cls-9" x="178.56" y="71.17" width="5.46" height="0.05"/><rect class="cls-10" x="178.56" y="71.13" width="5.46" height="0.05"/><rect class="cls-11" x="178.56" y="71.08" width="5.46" height="0.05"/><rect class="cls-12" x="178.56" y="71.03" width="5.46" height="0.05"/><rect class="cls-13" x="178.56" y="70.98" width="5.46" height="0.05"/><rect class="cls-14" x="178.56" y="70.93" width="5.46" height="0.05"/><rect class="cls-15" x="178.56" y="70.88" width="5.46" height="0.05"/><rect class="cls-16" x="178.56" y="70.84" width="5.46" height="0.05"/><rect class="cls-17" x="178.56" y="70.79" width="5.46" height="0.05"/><rect class="cls-18" x="178.56" y="70.74" width="5.46" height="0.05"/><rect class="cls-19" x="178.56" y="70.69" width="5.46" height="0.05"/><rect class="cls-20" x="178.56" y="70.64" width="5.46" height="0.05"/><rect class="cls-21" x="178.56" y="70.6" width="5.46" height="0.05"/><rect class="cls-22" x="178.56" y="70.55" width="5.46" height="0.05"/><rect class="cls-23" x="178.56" y="70.5" width="5.46" height="0.05"/><rect class="cls-24" x="178.56" y="70.45" width="5.46" height="0.05"/><rect class="cls-25" x="178.56" y="70.4" width="5.46" height="0.05"/><rect class="cls-26" x="178.56" y="70.35" width="5.46" height="0.05"/><rect class="cls-27" x="178.56" y="70.31" width="5.46" height="0.05"/><rect class="cls-28" x="178.56" y="70.26" width="5.46" height="0.05"/><rect class="cls-29" x="178.56" y="70.21" width="5.46" height="0.05"/><rect class="cls-30" x="178.56" y="70.16" width="5.46" height="0.05"/><rect class="cls-31" x="178.56" y="70.11" width="5.46" height="0.05"/><rect class="cls-32" x="178.56" y="70.06" width="5.46" height="0.05"/><rect class="cls-33" x="178.56" y="70.02" width="5.46" height="0.05"/><rect class="cls-34" x="178.56" y="69.97" width="5.46" height="0.05"/><rect class="cls-35" x="178.56" y="69.92" width="5.46" height="0.05"/><rect class="cls-36" x="178.56" y="69.87" width="5.46" height="0.05"/><rect class="cls-37" x="178.56" y="69.82" width="5.46" height="0.05"/><rect class="cls-38" x="178.56" y="69.77" width="5.46" height="0.05"/><rect class="cls-39" x="178.56" y="69.73" width="5.46" height="0.05"/><rect class="cls-40" x="178.56" y="69.68" width="5.46" height="0.05"/><rect class="cls-41" x="178.56" y="69.63" width="5.46" height="0.05"/><rect class="cls-42" x="178.56" y="69.58" width="5.46" height="0.05"/><rect class="cls-43" x="178.56" y="69.53" width="5.46" height="0.05"/><rect class="cls-44" x="178.56" y="69.48" width="5.46" height="0.05"/><rect class="cls-45" x="178.56" y="69.44" width="5.46" height="0.05"/><rect class="cls-46" x="178.56" y="69.39" width="5.46" height="0.05"/><rect class="cls-47" x="178.56" y="69.34" width="5.46" height="0.05"/><rect class="cls-48" x="178.56" y="69.29" width="5.46" height="0.05"/><rect class="cls-49" x="178.56" y="69.24" width="5.46" height="0.05"/><rect class="cls-50" x="178.56" y="69.19" width="5.46" height="0.05"/><rect class="cls-51" x="178.56" y="69.15" width="5.46" height="0.05"/><rect class="cls-52" x="178.56" y="69.1" width="5.46" height="0.05"/><rect class="cls-53" x="178.56" y="69.05" width="5.46" height="0.05"/><rect class="cls-54" x="178.56" y="69" width="5.46" height="0.05"/><rect class="cls-55" x="178.56" y="68.95" width="5.46" height="0.05"/><rect class="cls-56" x="178.56" y="68.9" width="5.46" height="0.05"/><rect class="cls-57" x="178.56" y="68.86" width="5.46" height="0.05"/><rect class="cls-58" x="178.56" y="68.81" width="5.46" height="0.05"/><rect class="cls-59" x="178.56" y="68.76" width="5.46" height="0.05"/><rect class="cls-60" x="178.56" y="68.71" width="5.46" height="0.05"/><rect class="cls-61" x="178.56" y="68.66" width="5.46" height="0.05"/><rect class="cls-62" x="178.56" y="68.62" width="5.46" height="0.05"/><rect class="cls-63" x="178.56" y="68.57" width="5.46" height="0.05"/><rect class="cls-64" x="178.56" y="68.52" width="5.46" height="0.05"/><rect class="cls-65" x="178.56" y="68.47" width="5.46" height="0.05"/><rect class="cls-66" x="178.56" y="68.42" width="5.46" height="0.05"/><rect class="cls-67" x="178.56" y="68.37" width="5.46" height="0.05"/><rect class="cls-68" x="178.56" y="68.33" width="5.46" height="0.05"/><rect class="cls-69" x="178.56" y="68.28" width="5.46" height="0.05"/><rect class="cls-70" x="178.56" y="68.23" width="5.46" height="0.05"/><rect class="cls-71" x="178.56" y="68.18" width="5.46" height="0.05"/><rect class="cls-72" x="178.56" y="68.13" width="5.46" height="0.05"/><rect class="cls-73" x="178.56" y="68.08" width="5.46" height="0.05"/><rect class="cls-74" x="178.56" y="68.04" width="5.46" height="0.05"/><rect class="cls-75" x="178.56" y="67.99" width="5.46" height="0.05"/><rect class="cls-76" x="178.56" y="67.94" width="5.46" height="0.05"/><rect class="cls-77" x="178.56" y="67.89" width="5.46" height="0.05"/><rect class="cls-78" x="178.56" y="67.84" width="5.46" height="0.05"/><rect class="cls-79" x="178.56" y="67.79" width="5.46" height="0.05"/><rect class="cls-80" x="178.56" y="67.75" width="5.46" height="0.05"/><rect class="cls-81" x="178.56" y="67.7" width="5.46" height="0.05"/><rect class="cls-82" x="178.56" y="67.65" width="5.46" height="0.05"/><rect class="cls-83" x="178.56" y="67.6" width="5.46" height="0.05"/><rect class="cls-84" x="178.56" y="67.55" width="5.46" height="0.05"/><rect class="cls-85" x="178.56" y="67.5" width="5.46" height="0.05"/><rect class="cls-86" x="178.56" y="67.46" width="5.46" height="0.05"/><rect class="cls-87" x="178.56" y="67.41" width="5.46" height="0.05"/><rect class="cls-88" x="178.56" y="67.36" width="5.46" height="0.05"/><rect class="cls-89" x="178.56" y="67.31" width="5.46" height="0.05"/><rect class="cls-90" x="178.56" y="67.26" width="5.46" height="0.05"/><rect class="cls-91" x="178.56" y="67.21" width="5.46" height="0.05"/><rect class="cls-92" x="178.56" y="67.17" width="5.46" height="0.05"/><rect class="cls-93" x="178.56" y="67.12" width="5.46" height="0.05"/><rect class="cls-94" x="178.56" y="67.07" width="5.46" height="0.05"/><rect class="cls-95" x="178.56" y="67.02" width="5.46" height="0.05"/><rect class="cls-96" x="178.56" y="66.97" width="5.46" height="0.05"/><rect class="cls-97" x="178.56" y="66.92" width="5.46" height="0.05"/><rect class="cls-98" x="178.56" y="66.88" width="5.46" height="0.05"/><rect class="cls-99" x="178.56" y="66.83" width="5.46" height="0.05"/><rect class="cls-100" x="178.56" y="66.78" width="5.46" height="0.05"/><rect class="cls-101" x="178.56" y="66.73" width="5.46" height="0.05"/><rect class="cls-102" x="178.56" y="66.68" width="5.46" height="0.05"/><rect class="cls-103" x="178.56" y="66.63" width="5.46" height="0.05"/><rect class="cls-104" x="178.56" y="66.59" width="5.46" height="0.05"/><rect class="cls-105" x="178.56" y="66.54" width="5.46" height="0.05"/><rect class="cls-106" x="178.56" y="66.49" width="5.46" height="0.05"/><rect class="cls-107" x="178.56" y="66.44" width="5.46" height="0.05"/><rect class="cls-108" x="178.56" y="66.39" width="5.46" height="0.05"/><rect class="cls-109" x="178.56" y="66.35" width="5.46" height="0.05"/><rect class="cls-110" x="178.56" y="66.3" width="5.46" height="0.05"/><rect class="cls-111" x="178.56" y="66.25" width="5.46" height="0.05"/><rect class="cls-112" x="178.56" y="66.2" width="5.46" height="0.05"/><rect class="cls-113" x="178.56" y="66.15" width="5.46" height="0.05"/><rect class="cls-114" x="178.56" y="66.1" width="5.46" height="0.05"/><rect class="cls-115" x="178.56" y="66.06" width="5.46" height="0.05"/><rect class="cls-116" x="178.56" y="66.01" width="5.46" height="0.05"/><rect class="cls-117" x="178.56" y="65.96" width="5.46" height="0.05"/><rect class="cls-118" x="178.56" y="65.91" width="5.46" height="0.05"/><rect class="cls-119" x="178.56" y="65.86" width="5.46" height="0.05"/><rect class="cls-120" x="178.56" y="65.81" width="5.46" height="0.05"/><rect class="cls-121" x="178.56" y="65.77" width="5.46" height="0.05"/><rect class="cls-122" x="178.56" y="65.72" width="5.46" height="0.05"/><rect class="cls-123" x="178.56" y="65.67" width="5.46" height="0.05"/><rect class="cls-124" x="178.56" y="65.62" width="5.46" height="0.05"/><rect class="cls-125" x="178.56" y="65.57" width="5.46" height="0.05"/><rect class="cls-126" x="178.56" y="65.52" width="5.46" height="0.05"/><rect class="cls-127" x="178.56" y="65.48" width="5.46" height="0.05"/><rect class="cls-128" x="178.56" y="65.43" width="5.46" height="0.05"/><rect class="cls-129" x="178.56" y="65.38" width="5.46" height="0.05"/><rect class="cls-130" x="178.56" y="65.33" width="5.46" height="0.05"/><rect class="cls-131" x="178.56" y="65.28" width="5.46" height="0.05"/><rect class="cls-132" x="178.56" y="65.23" width="5.46" height="0.05"/><rect class="cls-133" x="178.56" y="65.19" width="5.46" height="0.05"/><rect class="cls-134" x="178.56" y="65.14" width="5.46" height="0.05"/><rect class="cls-135" x="178.56" y="65.09" width="5.46" height="0.05"/><rect class="cls-136" x="178.56" y="65.04" width="5.46" height="0.05"/><rect class="cls-137" x="178.56" y="64.99" width="5.46" height="0.05"/><rect class="cls-138" x="178.56" y="64.94" width="5.46" height="0.05"/><rect class="cls-139" x="178.56" y="64.9" width="5.46" height="0.05"/><rect class="cls-140" x="178.56" y="64.85" width="5.46" height="0.05"/><rect class="cls-141" x="178.56" y="64.8" width="5.46" height="0.05"/><rect class="cls-142" x="178.56" y="64.75" width="5.46" height="0.05"/><rect class="cls-143" x="178.56" y="64.7" width="5.46" height="0.05"/><rect class="cls-144" x="178.56" y="64.65" width="5.46" height="0.05"/><rect class="cls-145" x="178.56" y="64.61" width="5.46" height="0.05"/><rect class="cls-146" x="178.56" y="64.56" width="5.46" height="0.05"/><rect class="cls-147" x="178.56" y="64.51" width="5.46" height="0.05"/><rect class="cls-148" x="178.56" y="64.46" width="5.46" height="0.05"/><rect class="cls-149" x="178.56" y="64.41" width="5.46" height="0.05"/><rect class="cls-150" x="178.56" y="64.36" width="5.46" height="0.05"/><rect class="cls-151" x="178.56" y="64.32" width="5.46" height="0.05"/><rect class="cls-152" x="178.56" y="64.27" width="5.46" height="0.05"/><rect class="cls-153" x="178.56" y="64.22" width="5.46" height="0.05"/><rect class="cls-153" x="178.56" y="64.15" width="5.46" height="0.07"/><rect class="cls-154" x="178.56" y="64.09" width="5.46" height="0.07"/><rect class="cls-155" x="178.56" y="64.02" width="5.46" height="0.07"/><rect class="cls-156" x="178.56" y="63.96" width="5.46" height="0.07"/><rect class="cls-157" x="178.56" y="63.89" width="5.46" height="0.07"/><rect class="cls-158" x="178.56" y="63.83" width="5.46" height="0.07"/><rect class="cls-159" x="178.56" y="63.76" width="5.46" height="0.07"/><rect class="cls-160" x="178.56" y="63.7" width="5.46" height="0.07"/><rect class="cls-161" x="178.56" y="63.63" width="5.46" height="0.07"/><rect class="cls-162" x="178.56" y="63.57" width="5.46" height="0.07"/><rect class="cls-163" x="178.56" y="63.5" width="5.46" height="0.07"/><rect class="cls-164" x="178.56" y="63.44" width="5.46" height="0.07"/><rect class="cls-165" x="178.56" y="63.37" width="5.46" height="0.07"/><rect class="cls-166" x="178.56" y="63.3" width="5.46" height="0.07"/><rect class="cls-167" x="178.56" y="63.24" width="5.46" height="0.07"/><rect class="cls-168" x="178.56" y="63.17" width="5.46" height="0.07"/><rect class="cls-169" x="178.56" y="63.11" width="5.46" height="0.07"/><rect class="cls-170" x="178.56" y="63.04" width="5.46" height="0.07"/><rect class="cls-171" x="178.56" y="62.98" width="5.46" height="0.07"/><rect class="cls-172" x="178.56" y="62.91" width="5.46" height="0.07"/><rect class="cls-173" x="178.56" y="62.85" width="5.46" height="0.07"/><rect class="cls-174" x="178.56" y="62.78" width="5.46" height="0.07"/><rect class="cls-175" x="178.56" y="62.72" width="5.46" height="0.07"/><rect class="cls-176" x="178.56" y="62.65" width="5.46" height="0.07"/><rect class="cls-177" x="178.56" y="62.59" width="5.46" height="0.07"/><rect class="cls-178" x="178.56" y="62.52" width="5.46" height="0.07"/><rect class="cls-179" x="178.56" y="62.45" width="5.46" height="0.07"/><rect class="cls-180" x="178.56" y="62.39" width="5.46" height="0.07"/><rect class="cls-181" x="178.56" y="62.32" width="5.46" height="0.07"/><rect class="cls-182" x="178.56" y="62.26" width="5.46" height="0.07"/><rect class="cls-183" x="178.56" y="62.19" width="5.46" height="0.07"/><rect class="cls-184" x="178.56" y="62.13" width="5.46" height="0.07"/><rect class="cls-185" x="178.56" y="62.06" width="5.46" height="0.07"/><rect class="cls-186" x="178.56" y="62" width="5.46" height="0.07"/><rect class="cls-187" x="178.56" y="61.93" width="5.46" height="0.07"/><rect class="cls-188" x="178.56" y="61.87" width="5.46" height="0.07"/><rect class="cls-189" x="178.56" y="61.8" width="5.46" height="0.07"/><rect class="cls-190" x="178.56" y="61.74" width="5.46" height="0.07"/><rect class="cls-191" x="178.56" y="61.67" width="5.46" height="0.07"/><rect class="cls-192" x="178.56" y="61.6" width="5.46" height="0.07"/><rect class="cls-193" x="178.56" y="61.54" width="5.46" height="0.07"/><rect class="cls-194" x="178.56" y="61.47" width="5.46" height="0.07"/><rect class="cls-195" x="178.56" y="61.41" width="5.46" height="0.07"/><rect class="cls-196" x="178.56" y="61.34" width="5.46" height="0.07"/><rect class="cls-197" x="178.56" y="61.28" width="5.46" height="0.07"/><rect class="cls-198" x="178.56" y="61.21" width="5.46" height="0.07"/><rect class="cls-199" x="178.56" y="61.15" width="5.46" height="0.07"/><rect class="cls-200" x="178.56" y="61.08" width="5.46" height="0.07"/><rect class="cls-201" x="178.56" y="61.02" width="5.46" height="0.07"/><rect class="cls-202" x="178.56" y="60.95" width="5.46" height="0.07"/><rect class="cls-203" x="178.56" y="60.89" width="5.46" height="0.07"/><rect class="cls-204" x="178.56" y="60.82" width="5.46" height="0.07"/><rect class="cls-205" x="178.56" y="60.75" width="5.46" height="0.07"/><rect class="cls-206" x="178.56" y="60.69" width="5.46" height="0.07"/><rect class="cls-207" x="178.56" y="60.62" width="5.46" height="0.07"/><rect class="cls-208" x="178.56" y="60.56" width="5.46" height="0.07"/><rect class="cls-209" x="178.56" y="60.49" width="5.46" height="0.07"/><rect class="cls-210" x="178.56" y="60.43" width="5.46" height="0.07"/><rect class="cls-211" x="178.56" y="60.36" width="5.46" height="0.07"/><rect class="cls-212" x="178.56" y="60.3" width="5.46" height="0.07"/><rect class="cls-213" x="178.56" y="60.23" width="5.46" height="0.07"/><rect class="cls-214" x="178.56" y="60.17" width="5.46" height="0.07"/><rect class="cls-215" x="178.56" y="60.1" width="5.46" height="0.07"/><rect class="cls-216" x="178.56" y="60.04" width="5.46" height="0.07"/><rect class="cls-217" x="178.56" y="59.97" width="5.46" height="0.07"/><rect class="cls-218" x="178.56" y="59.9" width="5.46" height="0.07"/><rect class="cls-219" x="178.56" y="59.84" width="5.46" height="0.07"/><rect class="cls-220" x="178.56" y="59.77" width="5.46" height="0.07"/><rect class="cls-221" x="178.56" y="59.71" width="5.46" height="0.07"/><rect class="cls-222" x="178.56" y="59.64" width="5.46" height="0.07"/><rect class="cls-223" x="178.56" y="59.58" width="5.46" height="0.07"/><rect class="cls-224" x="178.56" y="59.51" width="5.46" height="0.07"/><rect class="cls-225" x="178.56" y="59.45" width="5.46" height="0.07"/><rect class="cls-226" x="178.56" y="59.38" width="5.46" height="0.07"/><rect class="cls-227" x="178.56" y="59.32" width="5.46" height="0.07"/><rect class="cls-228" x="178.56" y="59.25" width="5.46" height="0.07"/><rect class="cls-229" x="178.56" y="59.19" width="5.46" height="0.07"/><rect class="cls-230" x="178.56" y="59.12" width="5.46" height="0.07"/><rect class="cls-231" x="178.56" y="59.05" width="5.46" height="0.07"/><rect class="cls-232" x="178.56" y="58.99" width="5.46" height="0.07"/><rect class="cls-233" x="178.56" y="58.92" width="5.46" height="0.07"/><rect class="cls-234" x="178.56" y="58.86" width="5.46" height="0.07"/><rect class="cls-235" x="178.56" y="58.79" width="5.46" height="0.07"/><rect class="cls-236" x="178.56" y="58.73" width="5.46" height="0.07"/><rect class="cls-237" x="178.56" y="58.66" width="5.46" height="0.07"/><rect class="cls-238" x="178.56" y="58.6" width="5.46" height="0.07"/><rect class="cls-239" x="178.56" y="58.53" width="5.46" height="0.07"/><rect class="cls-240" x="178.56" y="58.47" width="5.46" height="0.07"/><rect class="cls-241" x="178.56" y="58.4" width="5.46" height="0.07"/><rect class="cls-242" x="178.56" y="58.34" width="5.46" height="0.07"/><rect class="cls-243" x="178.56" y="58.27" width="5.46" height="0.07"/><rect class="cls-244" x="178.56" y="58.2" width="5.46" height="0.07"/><rect class="cls-245" x="178.56" y="58.14" width="5.46" height="0.07"/><rect class="cls-246" x="178.56" y="58.07" width="5.46" height="0.07"/><rect class="cls-247" x="178.56" y="58.01" width="5.46" height="0.07"/><rect class="cls-248" x="178.56" y="57.94" width="5.46" height="0.07"/><rect class="cls-249" x="178.56" y="57.88" width="5.46" height="0.07"/><rect class="cls-250" x="178.56" y="57.81" width="5.46" height="0.07"/><rect class="cls-251" x="178.56" y="57.75" width="5.46" height="0.07"/><rect class="cls-252" x="178.56" y="57.68" width="5.46" height="0.07"/><rect class="cls-253" x="178.56" y="57.62" width="5.46" height="0.07"/><rect class="cls-254" x="178.56" y="57.55" width="5.46" height="0.07"/><rect class="cls-255" x="178.56" y="57.49" width="5.46" height="0.07"/><rect class="cls-256" x="178.56" y="57.42" width="5.46" height="0.07"/><rect class="cls-257" x="178.56" y="57.35" width="5.46" height="0.07"/><rect class="cls-258" x="178.56" y="57.29" width="5.46" height="0.07"/><rect class="cls-259" x="178.56" y="57.22" width="5.46" height="0.07"/><rect class="cls-260" x="178.56" y="57.16" width="5.46" height="0.07"/><rect class="cls-261" x="178.56" y="57.09" width="5.46" height="0.07"/><rect class="cls-262" x="178.56" y="57.03" width="5.46" height="0.07"/><rect class="cls-263" x="178.56" y="56.96" width="5.46" height="0.07"/><rect class="cls-264" x="178.56" y="56.9" width="5.46" height="0.07"/><rect class="cls-265" x="178.56" y="56.83" width="5.46" height="0.07"/><rect class="cls-266" x="178.56" y="56.77" width="5.46" height="0.07"/><rect class="cls-267" x="178.56" y="56.7" width="5.46" height="0.07"/><rect class="cls-268" x="178.56" y="56.64" width="5.46" height="0.07"/><rect class="cls-269" x="178.56" y="56.57" width="5.46" height="0.07"/><rect class="cls-270" x="178.56" y="56.5" width="5.46" height="0.07"/><rect class="cls-271" x="178.56" y="56.44" width="5.46" height="0.07"/><rect class="cls-272" x="178.56" y="56.37" width="5.46" height="0.07"/><rect class="cls-273" x="178.56" y="56.31" width="5.46" height="0.07"/><rect class="cls-274" x="178.56" y="56.24" width="5.46" height="0.07"/><rect class="cls-275" x="178.56" y="56.18" width="5.46" height="0.07"/><rect class="cls-276" x="178.56" y="56.11" width="5.46" height="0.07"/><rect class="cls-277" x="178.56" y="56.05" width="5.46" height="0.07"/><rect class="cls-278" x="178.56" y="55.98" width="5.46" height="0.07"/><rect class="cls-279" x="178.56" y="55.92" width="5.46" height="0.07"/><rect class="cls-280" x="178.56" y="55.85" width="5.46" height="0.07"/><rect class="cls-281" x="178.56" y="55.79" width="5.46" height="0.07"/><rect class="cls-282" x="178.56" y="55.72" width="5.46" height="0.07"/><rect class="cls-283" x="178.56" y="55.66" width="5.46" height="0.07"/></g><g class="cls-284"><rect class="cls-5" x="185.07" y="71.36" width="5.37" height="0.05"/><rect class="cls-6" x="185.07" y="71.31" width="5.37" height="0.05"/><rect class="cls-7" x="185.07" y="71.27" width="5.37" height="0.05"/><rect class="cls-8" x="185.07" y="71.22" width="5.37" height="0.05"/><rect class="cls-9" x="185.07" y="71.17" width="5.37" height="0.05"/><rect class="cls-10" x="185.07" y="71.12" width="5.37" height="0.05"/><rect class="cls-11" x="185.07" y="71.07" width="5.37" height="0.05"/><rect class="cls-12" x="185.07" y="71.02" width="5.37" height="0.05"/><rect class="cls-13" x="185.07" y="70.98" width="5.37" height="0.05"/><rect class="cls-14" x="185.07" y="70.93" width="5.37" height="0.05"/><rect class="cls-15" x="185.07" y="70.88" width="5.37" height="0.05"/><rect class="cls-16" x="185.07" y="70.83" width="5.37" height="0.05"/><rect class="cls-17" x="185.07" y="70.78" width="5.37" height="0.05"/><rect class="cls-18" x="185.07" y="70.73" width="5.37" height="0.05"/><rect class="cls-19" x="185.07" y="70.69" width="5.37" height="0.05"/><rect class="cls-20" x="185.07" y="70.64" width="5.37" height="0.05"/><rect class="cls-21" x="185.07" y="70.59" width="5.37" height="0.05"/><rect class="cls-22" x="185.07" y="70.54" width="5.37" height="0.05"/><rect class="cls-23" x="185.07" y="70.49" width="5.37" height="0.05"/><rect class="cls-24" x="185.07" y="70.45" width="5.37" height="0.05"/><rect class="cls-25" x="185.07" y="70.4" width="5.37" height="0.05"/><rect class="cls-26" x="185.07" y="70.35" width="5.37" height="0.05"/><rect class="cls-27" x="185.07" y="70.3" width="5.37" height="0.05"/><rect class="cls-28" x="185.07" y="70.25" width="5.37" height="0.05"/><rect class="cls-29" x="185.07" y="70.2" width="5.37" height="0.05"/><rect class="cls-30" x="185.07" y="70.16" width="5.37" height="0.05"/><rect class="cls-31" x="185.07" y="70.11" width="5.37" height="0.05"/><rect class="cls-32" x="185.07" y="70.06" width="5.37" height="0.05"/><rect class="cls-33" x="185.07" y="70.01" width="5.37" height="0.05"/><rect class="cls-34" x="185.07" y="69.96" width="5.37" height="0.05"/><rect class="cls-35" x="185.07" y="69.91" width="5.37" height="0.05"/><rect class="cls-36" x="185.07" y="69.87" width="5.37" height="0.05"/><rect class="cls-37" x="185.07" y="69.82" width="5.37" height="0.05"/><rect class="cls-38" x="185.07" y="69.77" width="5.37" height="0.05"/><rect class="cls-39" x="185.07" y="69.72" width="5.37" height="0.05"/><rect class="cls-40" x="185.07" y="69.67" width="5.37" height="0.05"/><rect class="cls-41" x="185.07" y="69.62" width="5.37" height="0.05"/><rect class="cls-42" x="185.07" y="69.58" width="5.37" height="0.05"/><rect class="cls-43" x="185.07" y="69.53" width="5.37" height="0.05"/><rect class="cls-44" x="185.07" y="69.48" width="5.37" height="0.05"/><rect class="cls-45" x="185.07" y="69.43" width="5.37" height="0.05"/><rect class="cls-46" x="185.07" y="69.38" width="5.37" height="0.05"/><rect class="cls-47" x="185.07" y="69.33" width="5.37" height="0.05"/><rect class="cls-48" x="185.07" y="69.29" width="5.37" height="0.05"/><rect class="cls-49" x="185.07" y="69.24" width="5.37" height="0.05"/><rect class="cls-50" x="185.07" y="69.19" width="5.37" height="0.05"/><rect class="cls-51" x="185.07" y="69.14" width="5.37" height="0.05"/><rect class="cls-52" x="185.07" y="69.09" width="5.37" height="0.05"/><rect class="cls-53" x="185.07" y="69.05" width="5.37" height="0.05"/><rect class="cls-54" x="185.07" y="69" width="5.37" height="0.05"/><rect class="cls-55" x="185.07" y="68.95" width="5.37" height="0.05"/><rect class="cls-56" x="185.07" y="68.9" width="5.37" height="0.05"/><rect class="cls-57" x="185.07" y="68.85" width="5.37" height="0.05"/><rect class="cls-58" x="185.07" y="68.8" width="5.37" height="0.05"/><rect class="cls-59" x="185.07" y="68.76" width="5.37" height="0.05"/><rect class="cls-60" x="185.07" y="68.71" width="5.37" height="0.05"/><rect class="cls-61" x="185.07" y="68.66" width="5.37" height="0.05"/><rect class="cls-62" x="185.07" y="68.61" width="5.37" height="0.05"/><rect class="cls-63" x="185.07" y="68.56" width="5.37" height="0.05"/><rect class="cls-64" x="185.07" y="68.51" width="5.37" height="0.05"/><rect class="cls-65" x="185.07" y="68.47" width="5.37" height="0.05"/><rect class="cls-66" x="185.07" y="68.42" width="5.37" height="0.05"/><rect class="cls-67" x="185.07" y="68.37" width="5.37" height="0.05"/><rect class="cls-68" x="185.07" y="68.32" width="5.37" height="0.05"/><rect class="cls-69" x="185.07" y="68.27" width="5.37" height="0.05"/><rect class="cls-70" x="185.07" y="68.22" width="5.37" height="0.05"/><rect class="cls-71" x="185.07" y="68.18" width="5.37" height="0.05"/><rect class="cls-72" x="185.07" y="68.13" width="5.37" height="0.05"/><rect class="cls-73" x="185.07" y="68.08" width="5.37" height="0.05"/><rect class="cls-74" x="185.07" y="68.03" width="5.37" height="0.05"/><rect class="cls-75" x="185.07" y="67.98" width="5.37" height="0.05"/><rect class="cls-76" x="185.07" y="67.93" width="5.37" height="0.05"/><rect class="cls-77" x="185.07" y="67.89" width="5.37" height="0.05"/><rect class="cls-78" x="185.07" y="67.84" width="5.37" height="0.05"/><rect class="cls-79" x="185.07" y="67.79" width="5.37" height="0.05"/><rect class="cls-80" x="185.07" y="67.74" width="5.37" height="0.05"/><rect class="cls-81" x="185.07" y="67.69" width="5.37" height="0.05"/><rect class="cls-82" x="185.07" y="67.65" width="5.37" height="0.05"/><rect class="cls-83" x="185.07" y="67.6" width="5.37" height="0.05"/><rect class="cls-84" x="185.07" y="67.55" width="5.37" height="0.05"/><rect class="cls-85" x="185.07" y="67.5" width="5.37" height="0.05"/><rect class="cls-86" x="185.07" y="67.45" width="5.37" height="0.05"/><rect class="cls-87" x="185.07" y="67.4" width="5.37" height="0.05"/><rect class="cls-88" x="185.07" y="67.36" width="5.37" height="0.05"/><rect class="cls-89" x="185.07" y="67.31" width="5.37" height="0.05"/><rect class="cls-90" x="185.07" y="67.26" width="5.37" height="0.05"/><rect class="cls-91" x="185.07" y="67.21" width="5.37" height="0.05"/><rect class="cls-92" x="185.07" y="67.16" width="5.37" height="0.05"/><rect class="cls-93" x="185.07" y="67.11" width="5.37" height="0.05"/><rect class="cls-94" x="185.07" y="67.07" width="5.37" height="0.05"/><rect class="cls-95" x="185.07" y="67.02" width="5.37" height="0.05"/><rect class="cls-96" x="185.07" y="66.97" width="5.37" height="0.05"/><rect class="cls-97" x="185.07" y="66.92" width="5.37" height="0.05"/><rect class="cls-98" x="185.07" y="66.87" width="5.37" height="0.05"/><rect class="cls-99" x="185.07" y="66.82" width="5.37" height="0.05"/><rect class="cls-100" x="185.07" y="66.78" width="5.37" height="0.05"/><rect class="cls-101" x="185.07" y="66.73" width="5.37" height="0.05"/><rect class="cls-102" x="185.07" y="66.68" width="5.37" height="0.05"/><rect class="cls-103" x="185.07" y="66.63" width="5.37" height="0.05"/><rect class="cls-104" x="185.07" y="66.58" width="5.37" height="0.05"/><rect class="cls-105" x="185.07" y="66.54" width="5.37" height="0.05"/><rect class="cls-106" x="185.07" y="66.49" width="5.37" height="0.05"/><rect class="cls-107" x="185.07" y="66.44" width="5.37" height="0.05"/><rect class="cls-108" x="185.07" y="66.39" width="5.37" height="0.05"/><rect class="cls-109" x="185.07" y="66.34" width="5.37" height="0.05"/><rect class="cls-110" x="185.07" y="66.29" width="5.37" height="0.05"/><rect class="cls-111" x="185.07" y="66.25" width="5.37" height="0.05"/><rect class="cls-112" x="185.07" y="66.2" width="5.37" height="0.05"/><rect class="cls-113" x="185.07" y="66.15" width="5.37" height="0.05"/><rect class="cls-114" x="185.07" y="66.1" width="5.37" height="0.05"/><rect class="cls-115" x="185.07" y="66.05" width="5.37" height="0.05"/><rect class="cls-116" x="185.07" y="66" width="5.37" height="0.05"/><rect class="cls-117" x="185.07" y="65.96" width="5.37" height="0.05"/><rect class="cls-118" x="185.07" y="65.91" width="5.37" height="0.05"/><rect class="cls-119" x="185.07" y="65.86" width="5.37" height="0.05"/><rect class="cls-120" x="185.07" y="65.81" width="5.37" height="0.05"/><rect class="cls-121" x="185.07" y="65.76" width="5.37" height="0.05"/><rect class="cls-122" x="185.07" y="65.71" width="5.37" height="0.05"/><rect class="cls-123" x="185.07" y="65.67" width="5.37" height="0.05"/><rect class="cls-124" x="185.07" y="65.62" width="5.37" height="0.05"/><rect class="cls-125" x="185.07" y="65.57" width="5.37" height="0.05"/><rect class="cls-126" x="185.07" y="65.52" width="5.37" height="0.05"/><rect class="cls-127" x="185.07" y="65.47" width="5.37" height="0.05"/><rect class="cls-128" x="185.07" y="65.42" width="5.37" height="0.05"/><rect class="cls-129" x="185.07" y="65.38" width="5.37" height="0.05"/><rect class="cls-130" x="185.07" y="65.33" width="5.37" height="0.05"/><rect class="cls-131" x="185.07" y="65.28" width="5.37" height="0.05"/><rect class="cls-132" x="185.07" y="65.23" width="5.37" height="0.05"/><rect class="cls-133" x="185.07" y="65.18" width="5.37" height="0.05"/><rect class="cls-134" x="185.07" y="65.14" width="5.37" height="0.05"/><rect class="cls-135" x="185.07" y="65.09" width="5.37" height="0.05"/><rect class="cls-136" x="185.07" y="65.04" width="5.37" height="0.05"/><rect class="cls-137" x="185.07" y="64.99" width="5.37" height="0.05"/><rect class="cls-138" x="185.07" y="64.94" width="5.37" height="0.05"/><rect class="cls-139" x="185.07" y="64.89" width="5.37" height="0.05"/><rect class="cls-140" x="185.07" y="64.85" width="5.37" height="0.05"/><rect class="cls-141" x="185.07" y="64.8" width="5.37" height="0.05"/><rect class="cls-142" x="185.07" y="64.75" width="5.37" height="0.05"/><rect class="cls-143" x="185.07" y="64.7" width="5.37" height="0.05"/><rect class="cls-144" x="185.07" y="64.65" width="5.37" height="0.05"/><rect class="cls-145" x="185.07" y="64.6" width="5.37" height="0.05"/><rect class="cls-146" x="185.07" y="64.56" width="5.37" height="0.05"/><rect class="cls-147" x="185.07" y="64.51" width="5.37" height="0.05"/><rect class="cls-148" x="185.07" y="64.46" width="5.37" height="0.05"/><rect class="cls-149" x="185.07" y="64.41" width="5.37" height="0.05"/><rect class="cls-150" x="185.07" y="64.36" width="5.37" height="0.05"/><rect class="cls-151" x="185.07" y="64.31" width="5.37" height="0.05"/><rect class="cls-152" x="185.07" y="64.27" width="5.37" height="0.05"/><rect class="cls-153" x="185.07" y="64.22" width="5.37" height="0.05"/><rect class="cls-153" x="185.07" y="64.15" width="5.37" height="0.07"/><rect class="cls-154" x="185.07" y="64.09" width="5.37" height="0.07"/><rect class="cls-155" x="185.07" y="64.02" width="5.37" height="0.07"/><rect class="cls-156" x="185.07" y="63.96" width="5.37" height="0.07"/><rect class="cls-157" x="185.07" y="63.89" width="5.37" height="0.07"/><rect class="cls-158" x="185.07" y="63.83" width="5.37" height="0.07"/><rect class="cls-159" x="185.07" y="63.76" width="5.37" height="0.07"/><rect class="cls-160" x="185.07" y="63.7" width="5.37" height="0.07"/><rect class="cls-161" x="185.07" y="63.63" width="5.37" height="0.07"/><rect class="cls-162" x="185.07" y="63.56" width="5.37" height="0.07"/><rect class="cls-163" x="185.07" y="63.5" width="5.37" height="0.07"/><rect class="cls-164" x="185.07" y="63.43" width="5.37" height="0.07"/><rect class="cls-165" x="185.07" y="63.37" width="5.37" height="0.07"/><rect class="cls-166" x="185.07" y="63.3" width="5.37" height="0.07"/><rect class="cls-167" x="185.07" y="63.24" width="5.37" height="0.07"/><rect class="cls-168" x="185.07" y="63.17" width="5.37" height="0.07"/><rect class="cls-169" x="185.07" y="63.11" width="5.37" height="0.07"/><rect class="cls-170" x="185.07" y="63.04" width="5.37" height="0.07"/><rect class="cls-171" x="185.07" y="62.98" width="5.37" height="0.07"/><rect class="cls-172" x="185.07" y="62.91" width="5.37" height="0.07"/><rect class="cls-173" x="185.07" y="62.85" width="5.37" height="0.07"/><rect class="cls-174" x="185.07" y="62.78" width="5.37" height="0.07"/><rect class="cls-175" x="185.07" y="62.71" width="5.37" height="0.07"/><rect class="cls-176" x="185.07" y="62.65" width="5.37" height="0.07"/><rect class="cls-177" x="185.07" y="62.58" width="5.37" height="0.07"/><rect class="cls-178" x="185.07" y="62.52" width="5.37" height="0.07"/><rect class="cls-179" x="185.07" y="62.45" width="5.37" height="0.07"/><rect class="cls-180" x="185.07" y="62.39" width="5.37" height="0.07"/><rect class="cls-181" x="185.07" y="62.32" width="5.37" height="0.07"/><rect class="cls-182" x="185.07" y="62.26" width="5.37" height="0.07"/><rect class="cls-183" x="185.07" y="62.19" width="5.37" height="0.07"/><rect class="cls-184" x="185.07" y="62.13" width="5.37" height="0.07"/><rect class="cls-185" x="185.07" y="62.06" width="5.37" height="0.07"/><rect class="cls-186" x="185.07" y="62" width="5.37" height="0.07"/><rect class="cls-187" x="185.07" y="61.93" width="5.37" height="0.07"/><rect class="cls-188" x="185.07" y="61.87" width="5.37" height="0.07"/><rect class="cls-189" x="185.07" y="61.8" width="5.37" height="0.07"/><rect class="cls-190" x="185.07" y="61.73" width="5.37" height="0.07"/><rect class="cls-191" x="185.07" y="61.67" width="5.37" height="0.07"/><rect class="cls-192" x="185.07" y="61.6" width="5.37" height="0.07"/><rect class="cls-193" x="185.07" y="61.54" width="5.37" height="0.07"/><rect class="cls-194" x="185.07" y="61.47" width="5.37" height="0.07"/><rect class="cls-195" x="185.07" y="61.41" width="5.37" height="0.07"/><rect class="cls-196" x="185.07" y="61.34" width="5.37" height="0.07"/><rect class="cls-197" x="185.07" y="61.28" width="5.37" height="0.07"/><rect class="cls-198" x="185.07" y="61.21" width="5.37" height="0.07"/><rect class="cls-199" x="185.07" y="61.15" width="5.37" height="0.07"/><rect class="cls-200" x="185.07" y="61.08" width="5.37" height="0.07"/><rect class="cls-201" x="185.07" y="61.02" width="5.37" height="0.07"/><rect class="cls-202" x="185.07" y="60.95" width="5.37" height="0.07"/><rect class="cls-203" x="185.07" y="60.89" width="5.37" height="0.07"/><rect class="cls-204" x="185.07" y="60.82" width="5.37" height="0.07"/><rect class="cls-205" x="185.07" y="60.75" width="5.37" height="0.07"/><rect class="cls-206" x="185.07" y="60.69" width="5.37" height="0.07"/><rect class="cls-207" x="185.07" y="60.62" width="5.37" height="0.07"/><rect class="cls-208" x="185.07" y="60.56" width="5.37" height="0.07"/><rect class="cls-209" x="185.07" y="60.49" width="5.37" height="0.07"/><rect class="cls-210" x="185.07" y="60.43" width="5.37" height="0.07"/><rect class="cls-211" x="185.07" y="60.36" width="5.37" height="0.07"/><rect class="cls-212" x="185.07" y="60.3" width="5.37" height="0.07"/><rect class="cls-213" x="185.07" y="60.23" width="5.37" height="0.07"/><rect class="cls-214" x="185.07" y="60.17" width="5.37" height="0.07"/><rect class="cls-215" x="185.07" y="60.1" width="5.37" height="0.07"/><rect class="cls-216" x="185.07" y="60.04" width="5.37" height="0.07"/><rect class="cls-217" x="185.07" y="59.97" width="5.37" height="0.07"/><rect class="cls-218" x="185.07" y="59.9" width="5.37" height="0.07"/><rect class="cls-219" x="185.07" y="59.84" width="5.37" height="0.07"/><rect class="cls-220" x="185.07" y="59.77" width="5.37" height="0.07"/><rect class="cls-221" x="185.07" y="59.71" width="5.37" height="0.07"/><rect class="cls-222" x="185.07" y="59.64" width="5.37" height="0.07"/><rect class="cls-223" x="185.07" y="59.58" width="5.37" height="0.07"/><rect class="cls-224" x="185.07" y="59.51" width="5.37" height="0.07"/><rect class="cls-225" x="185.07" y="59.45" width="5.37" height="0.07"/><rect class="cls-226" x="185.07" y="59.38" width="5.37" height="0.07"/><rect class="cls-227" x="185.07" y="59.32" width="5.37" height="0.07"/><rect class="cls-228" x="185.07" y="59.25" width="5.37" height="0.07"/><rect class="cls-229" x="185.07" y="59.19" width="5.37" height="0.07"/><rect class="cls-230" x="185.07" y="59.12" width="5.37" height="0.07"/><rect class="cls-231" x="185.07" y="59.06" width="5.37" height="0.07"/><rect class="cls-232" x="185.07" y="58.99" width="5.37" height="0.07"/><rect class="cls-233" x="185.07" y="58.92" width="5.37" height="0.07"/><rect class="cls-234" x="185.07" y="58.86" width="5.37" height="0.07"/><rect class="cls-235" x="185.07" y="58.79" width="5.37" height="0.07"/><rect class="cls-236" x="185.07" y="58.73" width="5.37" height="0.07"/><rect class="cls-237" x="185.07" y="58.66" width="5.37" height="0.07"/><rect class="cls-238" x="185.07" y="58.6" width="5.37" height="0.07"/><rect class="cls-239" x="185.07" y="58.53" width="5.37" height="0.07"/><rect class="cls-240" x="185.07" y="58.47" width="5.37" height="0.07"/><rect class="cls-241" x="185.07" y="58.4" width="5.37" height="0.07"/><rect class="cls-242" x="185.07" y="58.34" width="5.37" height="0.07"/><rect class="cls-243" x="185.07" y="58.27" width="5.37" height="0.07"/><rect class="cls-244" x="185.07" y="58.21" width="5.37" height="0.07"/><rect class="cls-245" x="185.07" y="58.14" width="5.37" height="0.07"/><rect class="cls-246" x="185.07" y="58.07" width="5.37" height="0.07"/><rect class="cls-247" x="185.07" y="58.01" width="5.37" height="0.07"/><rect class="cls-248" x="185.07" y="57.94" width="5.37" height="0.07"/><rect class="cls-249" x="185.07" y="57.88" width="5.37" height="0.07"/><rect class="cls-250" x="185.07" y="57.81" width="5.37" height="0.07"/><rect class="cls-251" x="185.07" y="57.75" width="5.37" height="0.07"/><rect class="cls-252" x="185.07" y="57.68" width="5.37" height="0.07"/><rect class="cls-253" x="185.07" y="57.62" width="5.37" height="0.07"/><rect class="cls-254" x="185.07" y="57.55" width="5.37" height="0.07"/><rect class="cls-255" x="185.07" y="57.49" width="5.37" height="0.07"/><rect class="cls-256" x="185.07" y="57.42" width="5.37" height="0.07"/><rect class="cls-257" x="185.07" y="57.36" width="5.37" height="0.07"/><rect class="cls-258" x="185.07" y="57.29" width="5.37" height="0.07"/><rect class="cls-259" x="185.07" y="57.23" width="5.37" height="0.07"/><rect class="cls-260" x="185.07" y="57.16" width="5.37" height="0.07"/><rect class="cls-261" x="185.07" y="57.09" width="5.37" height="0.07"/><rect class="cls-262" x="185.07" y="57.03" width="5.37" height="0.07"/><rect class="cls-263" x="185.07" y="56.96" width="5.37" height="0.07"/><rect class="cls-264" x="185.07" y="56.9" width="5.37" height="0.07"/><rect class="cls-265" x="185.07" y="56.83" width="5.37" height="0.07"/><rect class="cls-266" x="185.07" y="56.77" width="5.37" height="0.07"/><rect class="cls-267" x="185.07" y="56.7" width="5.37" height="0.07"/><rect class="cls-268" x="185.07" y="56.64" width="5.37" height="0.07"/><rect class="cls-269" x="185.07" y="56.57" width="5.37" height="0.07"/><rect class="cls-270" x="185.07" y="56.51" width="5.37" height="0.07"/><rect class="cls-271" x="185.07" y="56.44" width="5.37" height="0.07"/><rect class="cls-272" x="185.07" y="56.38" width="5.37" height="0.07"/><rect class="cls-273" x="185.07" y="56.31" width="5.37" height="0.07"/><rect class="cls-274" x="185.07" y="56.25" width="5.37" height="0.07"/><rect class="cls-275" x="185.07" y="56.18" width="5.37" height="0.07"/><rect class="cls-276" x="185.07" y="56.11" width="5.37" height="0.07"/><rect class="cls-277" x="185.07" y="56.05" width="5.37" height="0.07"/><rect class="cls-278" x="185.07" y="55.98" width="5.37" height="0.07"/><rect class="cls-279" x="185.07" y="55.92" width="5.37" height="0.07"/><rect class="cls-280" x="185.07" y="55.85" width="5.37" height="0.07"/><rect class="cls-281" x="185.07" y="55.79" width="5.37" height="0.07"/><rect class="cls-282" x="185.07" y="55.72" width="5.37" height="0.07"/><rect class="cls-283" x="185.07" y="55.66" width="5.37" height="0.07"/></g><path class="cls-2" d="M128.35,64.88v2.7h-.49V60.89h1.73a2.65,2.65,0,0,1,1.77.51,1.85,1.85,0,0,1,.6,1.47,1.92,1.92,0,0,1-.16.81,1.87,1.87,0,0,1-.47.64,2,2,0,0,1-.75.41,3,3,0,0,1-1,.15Zm0-.38h1.24a2.38,2.38,0,0,0,.79-.13A1.68,1.68,0,0,0,131,64a1.46,1.46,0,0,0,.37-.51,1.54,1.54,0,0,0,.13-.65,1.49,1.49,0,0,0-.47-1.18,2.09,2.09,0,0,0-1.42-.42h-1.24Z"/><path class="cls-2" d="M134.76,62.8a2.33,2.33,0,0,1,.9.17,2,2,0,0,1,.68.49,2.14,2.14,0,0,1,.41.76,3.13,3.13,0,0,1,.15,1,3.09,3.09,0,0,1-.15,1,2.06,2.06,0,0,1-.41.76,1.85,1.85,0,0,1-.68.49,2.33,2.33,0,0,1-.9.17,2.38,2.38,0,0,1-.91-.17,1.82,1.82,0,0,1-.67-.49,2.09,2.09,0,0,1-.43-.76,3.4,3.4,0,0,1-.14-1,3.45,3.45,0,0,1,.14-1,2.18,2.18,0,0,1,.43-.76,1.94,1.94,0,0,1,.67-.49A2.38,2.38,0,0,1,134.76,62.8Zm0,4.49a1.67,1.67,0,0,0,.73-.15,1.33,1.33,0,0,0,.53-.41,1.87,1.87,0,0,0,.31-.65,3.38,3.38,0,0,0,0-1.71,1.87,1.87,0,0,0-.31-.65,1.46,1.46,0,0,0-.53-.42,1.67,1.67,0,0,0-.73-.15,1.72,1.72,0,0,0-.74.15,1.42,1.42,0,0,0-.52.42,1.88,1.88,0,0,0-.32.65,3.38,3.38,0,0,0,0,1.71,1.88,1.88,0,0,0,.32.65,1.3,1.3,0,0,0,.52.41A1.72,1.72,0,0,0,134.76,67.29Z"/><path class="cls-2" d="M137.42,62.87h.34a.18.18,0,0,1,.11,0,.16.16,0,0,1,.06.08l1.19,3.71a1.6,1.6,0,0,1,0,.21,1.77,1.77,0,0,0,0,.2,1.17,1.17,0,0,1,0-.2l.06-.21L140.59,63a.13.13,0,0,1,.13-.1h.18a.14.14,0,0,1,.14.1l1.24,3.75a3.71,3.71,0,0,1,.12.41,1.42,1.42,0,0,1,0-.2.83.83,0,0,1,.06-.21L143.69,63a.15.15,0,0,1,.16-.12h.33l-1.57,4.71h-.34c-.05,0-.08,0-.1-.1l-1.29-3.82s0-.1,0-.14l0-.14,0,.14s0,.09,0,.14l-1.31,3.82c0,.07,0,.1-.11.1H139Z"/><path class="cls-2" d="M146.82,62.8a1.81,1.81,0,0,1,.74.14,1.67,1.67,0,0,1,.59.4,1.84,1.84,0,0,1,.38.64,2.43,2.43,0,0,1,.14.88.22.22,0,0,1,0,.14.11.11,0,0,1-.1,0h-3.39v.09a3.28,3.28,0,0,0,.12.93,1.85,1.85,0,0,0,.35.67,1.37,1.37,0,0,0,.55.41,2.1,2.1,0,0,0,1.33.06,2.39,2.39,0,0,0,.44-.17l.28-.18a.36.36,0,0,1,.15-.08.11.11,0,0,1,.1,0l.12.15a1,1,0,0,1-.3.27,2.25,2.25,0,0,1-.41.21,3.65,3.65,0,0,1-.5.14,3.05,3.05,0,0,1-.52,0,2.23,2.23,0,0,1-.88-.17,1.75,1.75,0,0,1-.68-.49,2.12,2.12,0,0,1-.44-.78,3.21,3.21,0,0,1-.16-1.07,2.75,2.75,0,0,1,.15-.93,2,2,0,0,1,.41-.74,1.85,1.85,0,0,1,.67-.49A2.28,2.28,0,0,1,146.82,62.8Zm0,.33a1.67,1.67,0,0,0-.65.12,1.38,1.38,0,0,0-.5.32,2,2,0,0,0-.34.51,2.35,2.35,0,0,0-.17.67h3.1a2.06,2.06,0,0,0-.11-.68,1.58,1.58,0,0,0-.29-.51,1.39,1.39,0,0,0-.45-.31A1.45,1.45,0,0,0,146.83,63.13Z"/><path class="cls-2" d="M149.88,67.58V62.87h.24a.16.16,0,0,1,.11,0,.16.16,0,0,1,.05.11l0,1a2.2,2.2,0,0,1,.61-.89,1.36,1.36,0,0,1,.93-.33,1.6,1.6,0,0,1,.39.05,1.26,1.26,0,0,1,.34.13l-.06.31a.09.09,0,0,1-.09.08l-.08,0-.13,0-.2,0-.26,0a1.21,1.21,0,0,0-.87.33,2.39,2.39,0,0,0-.56,1v3.06Z"/><path class="cls-2" d="M155.41,62.8a1.84,1.84,0,0,1,.74.14,1.55,1.55,0,0,1,.58.4,1.72,1.72,0,0,1,.39.64,2.66,2.66,0,0,1,.14.88.22.22,0,0,1,0,.14.11.11,0,0,1-.1,0h-3.39v.09a3.28,3.28,0,0,0,.12.93,1.85,1.85,0,0,0,.35.67,1.31,1.31,0,0,0,.55.41,1.81,1.81,0,0,0,.72.14,1.88,1.88,0,0,0,.61-.08,2.7,2.7,0,0,0,.44-.17l.28-.18a.36.36,0,0,1,.15-.08.14.14,0,0,1,.1,0l.12.15a1.31,1.31,0,0,1-.3.27,2.35,2.35,0,0,1-.42.21,3.15,3.15,0,0,1-.49.14,3.07,3.07,0,0,1-.53,0,2.3,2.3,0,0,1-.88-.17,1.82,1.82,0,0,1-.68-.49,2.27,2.27,0,0,1-.44-.78,3.5,3.5,0,0,1-.15-1.07,3,3,0,0,1,.14-.93,2.14,2.14,0,0,1,.42-.74,1.9,1.9,0,0,1,.66-.49A2.37,2.37,0,0,1,155.41,62.8Zm0,.33a1.64,1.64,0,0,0-.65.12,1.3,1.3,0,0,0-.5.32,1.75,1.75,0,0,0-.34.51,2.06,2.06,0,0,0-.17.67h3.09a2.07,2.07,0,0,0-.1-.68,1.58,1.58,0,0,0-.29-.51,1.33,1.33,0,0,0-.46-.31A1.37,1.37,0,0,0,155.42,63.13Z"/><path class="cls-2" d="M161.81,67.58a.13.13,0,0,1-.14-.12l0-.75a2.47,2.47,0,0,1-.73.68,1.76,1.76,0,0,1-.94.25,1.63,1.63,0,0,1-1.35-.6,2.84,2.84,0,0,1-.49-1.8,3.22,3.22,0,0,1,.14-1,2.22,2.22,0,0,1,.4-.78,1.91,1.91,0,0,1,.64-.52,2.07,2.07,0,0,1,.88-.19A1.81,1.81,0,0,1,161,63a1.74,1.74,0,0,1,.6.52V60.7h.45v6.88Zm-1.73-.3a1.51,1.51,0,0,0,.85-.25,2.25,2.25,0,0,0,.67-.67V63.88a1.61,1.61,0,0,0-.6-.57,1.65,1.65,0,0,0-.75-.16,1.7,1.7,0,0,0-.73.15,1.43,1.43,0,0,0-.52.43,2,2,0,0,0-.32.66,3.25,3.25,0,0,0-.1.85,2.47,2.47,0,0,0,.39,1.54A1.32,1.32,0,0,0,160.08,67.28Z"/><path class="cls-2" d="M165.5,67.58V60.7H166v3a2.49,2.49,0,0,1,.72-.66,1.81,1.81,0,0,1,.93-.24,1.63,1.63,0,0,1,1.35.6,2.82,2.82,0,0,1,.48,1.8,3.32,3.32,0,0,1-.13,1,2.17,2.17,0,0,1-.4.77,1.91,1.91,0,0,1-.64.52,1.93,1.93,0,0,1-.88.19,1.62,1.62,0,0,1-1.46-.76l0,.58q0,.12-.12.12Zm2-4.42a1.56,1.56,0,0,0-.85.24,2.4,2.4,0,0,0-.68.67v2.48a1.61,1.61,0,0,0,.6.57,1.74,1.74,0,0,0,1.48,0,1.46,1.46,0,0,0,.53-.42,2,2,0,0,0,.31-.67,3.16,3.16,0,0,0,.11-.84,2.51,2.51,0,0,0-.39-1.55A1.33,1.33,0,0,0,167.48,63.16Z"/><path class="cls-2" d="M171.56,69.09a.3.3,0,0,1-.07.11.18.18,0,0,1-.13,0H171l.82-1.84-2-4.53h.38a.21.21,0,0,1,.11,0l.06.08L172,66.65a.58.58,0,0,1,.05.14s0,.1,0,.15,0-.1,0-.15a1.21,1.21,0,0,0,.05-.14L173.76,63a.31.31,0,0,1,.07-.09.14.14,0,0,1,.09,0h.35Z"/></svg>