<svg xmlns="http://www.w3.org/2000/svg" viewBox="0 0 48 48" width="48" height="48"><path fill="#4488D5" d="M15.47 15.64l24.06 9.3-6.81 3.87 8.74 8.49-3.68 3.6-8.74-8.5-3.93 6.66-9.64-23.42m0-1.35a1.35 1.35 0 0 0-1.25 1.86l9.64 23.43a1.35 1.35 0 0 0 2.42.17l3.05-5.18 7.5 7.3a1.35 1.35 0 0 0 1.9-.01l3.67-3.6a1.35 1.35 0 0 0 0-1.93l-7.45-7.24 5.25-2.97a1.35 1.35 0 0 0-.18-2.44l-24.06-9.3a1.3 1.3 0 0 0-.49-.1z"/><path fill="none" stroke="#4488D5" stroke-width="1.35" stroke-linecap="round" stroke-linejoin="round" stroke-miterlimit="10" d="M14.91 6.11v5.78M11.22 15.48H5.54M6.62 7.19l4.74 4.62M23.2 7.19l-4.73 4.62M11.97 18.15l-4.73 4.61"/></svg>