<svg xmlns="http://www.w3.org/2000/svg" viewBox="0 0 48 48" width="48" height="48"><g fill="none" stroke="#4488D5" stroke-width="1.01" stroke-miterlimit="10"><path d="M34.37 37.38a2.9 2.9 0 0 1-2.93 2.85H17.06a2.9 2.9 0 0 1-2.93-2.85V10.62a2.89 2.89 0 0 1 2.93-2.85h14.38a2.9 2.9 0 0 1 2.93 2.85v26.76z"/><path stroke-linecap="round" d="M21.83 10.84h4.87"/><ellipse cx="24.25" cy="36.96" rx="1.62" ry="1.57"/></g><path fill="#FFF" stroke="#4488D5" stroke-width="1.01" d="M26.88 28.21h-5.76a2.86 2.86 0 0 1-2.87-2.86v-5.43a2.86 2.86 0 0 1 2.87-2.87h5.76a2.86 2.86 0 0 1 2.87 2.87v5.43a2.86 2.86 0 0 1-2.87 2.86z"/><g fill="#4EA7DA"><path d="M20.71 21.54h1.45v4.22h-1.45zM26.91 21.92c-.3-.32-.7-.48-1.2-.48-.19 0-.35.02-.5.07-.16.04-.28.1-.39.18a1.8 1.8 0 0 0-.42.45v-.6h-1.44v4.22h1.44V23.4a1 1 0 0 1 .05-.34.9.9 0 0 1 .28-.37c.12-.1.28-.14.46-.14.25 0 .44.08.56.25.12.17.18.4.18.7v2.26h1.44v-2.42c0-.62-.15-1.1-.46-1.42zM21.45 19.5a.84.84 0 0 0-.6.21.68.68 0 0 0-.22.52c0 .21.07.38.22.52.14.14.34.21.58.21.25 0 .45-.07.6-.2a.66.66 0 0 0 .22-.53.7.7 0 0 0-.22-.52.82.82 0 0 0-.59-.2z"/></g><path fill="#FFF" stroke="#4488D5" stroke-width="1.01" d="M41.14 33.18h-5.77a2.86 2.86 0 0 1-2.86-2.86V24.9a2.86 2.86 0 0 1 2.86-2.86h5.77A2.86 2.86 0 0 1 44 24.89v5.43a2.86 2.86 0 0 1-2.86 2.86z"/><path fill="#4EA7DA" d="M42.04 25.9c-.24.1-.5.17-.76.2.27-.16.48-.41.58-.71-.25.14-.54.25-.84.31-.25-.25-.6-.4-.98-.4a1.31 1.31 0 0 0-1.3 1.58A3.83 3.83 0 0 1 36 25.53a1.29 1.29 0 0 0 .41 1.73c-.21-.01-.42-.07-.6-.17v.02c0 .63.46 1.15 1.07 1.27a1.4 1.4 0 0 1-.6.02c.17.52.66.89 1.24.9a2.73 2.73 0 0 1-1.97.54c.6.36 1.3.58 2.05.58 2.45 0 3.8-1.97 3.8-3.69l-.01-.16c.26-.18.49-.41.66-.67z"/><g><path fill="#FFF" stroke="#4488D5" stroke-width="1.01" d="M12.63 23.24H6.86A2.86 2.86 0 0 1 4 20.38v-5.44a2.86 2.86 0 0 1 2.86-2.86h5.77a2.86 2.86 0 0 1 2.86 2.86v5.44a2.86 2.86 0 0 1-2.86 2.86z"/><path fill="#4EA7DA" d="M11.74 13.78h-1.03c-1.17 0-1.92.75-1.92 1.91v.88H7.75a.16.16 0 0 0-.16.16V18c0 .09.07.16.16.16h1.04v3.22c0 .09.07.16.16.16h1.36c.1 0 .16-.07.16-.16v-3.22h1.22c.1 0 .17-.07.17-.16v-1.27a.16.16 0 0 0-.05-.11.16.16 0 0 0-.12-.05h-1.22v-.75c0-.35.1-.54.57-.54h.7c.1 0 .16-.07.16-.15v-1.19a.16.16 0 0 0-.16-.16z"/></g></svg>