<svg xmlns="http://www.w3.org/2000/svg" viewBox="0 0 48 48" width="48" height="48"><g fill="none" stroke="#4488D5" stroke-width="1.585" stroke-miterlimit="10"><path d="M16.104 27.834c-5.978-2.99-6.333-10.807-6.497-11.987-.163-1.181.983-1.233.983-1.233h3.046l-.398-1.863H7.833s-2.074-.105-2.074 1.547c0 1.653.546 10.441 7.671 14.087 0 0 1.692.971 3.33.866l-.656-1.417zM31.896 27.834c5.978-2.99 6.333-10.807 6.497-11.987.164-1.181-.983-1.233-.983-1.233h-3.045l.397-1.863h5.405s2.074-.105 2.074 1.547c0 1.653-.546 10.441-7.67 14.087 0 0-1.693.971-3.33.866l.655-1.417zM22.034 33.022h3.89v1.546h-3.89z"/><path d="M17.377 34.568h-.457l-1.972 3.497c-.552.978.186 2.168 1.344 2.168H31.668c1.158 0 1.895-1.189 1.344-2.168l-1.972-3.498H17.377M33.207 7.767h-9.228-9.227c-2.805 0-1.74 2.518-1.74 2.518l3.481 17.469c1.269 5.115 7.486 5.076 7.486 5.076v-.025l.001.025s6.217.038 7.487-5.076l3.481-17.469c-.001 0 1.063-2.518-1.741-2.518z"/></g><path fill="#FDD324" stroke="#4488D5" stroke-width="1.057" stroke-miterlimit="10" d="M29.59 16.107l-3.166 2.211a.314.314 0 0 0-.121.357l1.209 3.577c.033.098-.084.18-.171.119l-3.231-2.256a.228.228 0 0 0-.26 0l-3.231 2.256c-.087.061-.204-.021-.171-.119l1.209-3.578a.313.313 0 0 0-.121-.357l-3.166-2.211c-.087-.061-.042-.193.065-.193h3.913a.333.333 0 0 0 .317-.221l1.21-3.576c.033-.098.178-.098.212 0l1.209 3.576a.333.333 0 0 0 .317.221h3.913c.107.001.151.133.064.194z"/></svg>