<?xml version="1.0" encoding="utf-8"?>
<!DOCTYPE svg PUBLIC "-//W3C//DTD SVG 1.1//EN" "http://www.w3.org/Graphics/SVG/1.1/DTD/svg11.dtd">
<svg version="1.1" id="Layer_1" xmlns="http://www.w3.org/2000/svg" xmlns:xlink="http://www.w3.org/1999/xlink" x="0px" y="0px"
	 width="80.17px" height="80px" viewBox="0 0 80.17 80" enable-background="new 0 0 80.17 80" xml:space="preserve">
<path fill="#223E4F" d="M60.54,66.36c0.21-0.01,0.42-0.01,0.63-0.01c1.95,0,3.27,0.28,4.76,0.73l0.02,0.01l0.02,0.01l0.24,0.08
	c0.6,0.2,1.86,0.62,2.24,0.64c1.03,0,2.45-0.5,3.64-1.1c-2.82-1.26-6.63-2.66-10.05-3.84C61.75,64.09,61.24,65.25,60.54,66.36z"/>
<path fill="#223E4F" d="M45.14,71.89l-1.13-2.11l2.14-0.84c1.07-0.52,5.26-3.85,5.26-6.71c0-0.92-0.32-2.22-0.68-3.22h-4.09h-1.81
	v-2.06v-3.53V51h1.81h0.33c-0.98-2-1.33-3.69-1.33-6.14c0-4.14,2.77-10.08,9.77-12.4c0.03-0.4,0.06-0.73,0.1-1.08
	c0.22-2.12-1.45-1.76-1.45-1.76c0.67-2.01,1.11-9.68,0-13.25c-1.89-5.68-7.69-9.24-7.69-9.24c1.34-1.45,1.45-1.67,0.78-1.89
	c-0.89-0.45-3.68-0.11-3.68-0.11c-11.26,2.01-16.05,7.69-17.61,9.92c-2.23,3.12,0,14.6,0,14.6c-1-0.33-2.23,1.34-1.89,2.9
	c0.56,1.67,0.22,3.12,0.56,5.35c0.22,2.12,2.34,2.12,2.34,2.12c0.56,2.9,3.12,7.91,3.12,7.91c0,1-0.67,7.24-0.67,7.24l-1.67,0.45
	l-0.11,4.01c-1.04,0.47-13.91,4.75-20.52,7.46c-1.73,0.71-2.88,2.38-2.92,4.25l0,0.27C4.05,73.37,5.48,75,7.26,75h39.52L45.14,71.89
	z"/>
<path fill="#A7CEAB" d="M67.11,56.94h-7c0.18,1.06,0.29,2.06,0.29,3.11c0,0.82,0,3.59-2.53,6.53c-0.47,0.59-1.94,1.94-3.47,3.17
	l0.12,0.12c2.53-1,4.53-1.53,6.64-1.53c1.7,0,2.82,0.24,4.17,0.65c1.06,0.35,2.41,0.82,3.12,0.82c2,0,4.53-1.18,5.94-2.12
	l2.41,6.41c-2.12,1.29-5.11,2.65-8.93,2.65c-1.59,0-4.23-0.53-5.7-1.06c-2.53-0.88-3.94-1.29-5.7-1.29
	c-1.53,0-2.59,0.35-6.41,2.06l-3.17-5.7c0.94-0.35,6.53-4.35,6.53-8.58c0-1.7-0.76-4.11-1.35-5.23h-5.41v-3.53h3.41
	c-1.88-4.06-2.41-5.41-2.41-8.35c0-4.23,3.53-11.46,14.05-11.46c6.11,0,13.93,2.7,14.17,13.58h-7.7c-0.59-4-1.41-7-6.53-7
	c-4.53,0-5.76,3.59-5.76,5.41c0,1.12,0.12,1.82,2.82,7.82h8.41V56.94z"/>
</svg>
