<svg xmlns="http://www.w3.org/2000/svg" viewBox="0 0 56 56">
  <g fill="#B3B3B3" fill-rule="nonzero">
    <g transform="translate(0 25)">
      <circle cx="53" cy="3" r="3"/>
      <circle cx="3" cy="3" r="3"/>
      <path d="M51 4h-7c-.55 0-1-.45-1-1s.45-1 1-1h7c.55 0 1 .45 1 1s-.45 1-1 1zM12 4H5c-.55 0-1-.45-1-1s.45-1 1-1h7c.55 0 1 .45 1 1s-.45 1-1 1z"/>
    </g>
    <g transform="translate(3 12)">
      <circle cx="46.65" cy="3.5" r="3"/>
      <circle cx="3.35" cy="28.5" r="3"/>
      <path d="M38.89 8.98c-.35 0-.68-.18-.87-.5-.28-.48-.11-1.09.37-1.37l6-3.46c.48-.28 1.09-.11 1.37.37s.11 1.09-.37 1.37l-6 3.46c-.16.09-.33.13-.5.13zM5.11 28.48c-.35 0-.68-.18-.87-.5-.28-.48-.11-1.09.37-1.37l6-3.46c.48-.28 1.09-.11 1.37.37s.11 1.09-.37 1.37l-6 3.46c-.15.09-.33.13-.5.13z"/>
    </g>
    <g transform="translate(12 3)">
      <circle cx="28.5" cy="3.35" r="3"/>
      <circle cx="3.5" cy="46.65" r="3"/>
      <path d="M23.75 12.58c-.17 0-.34-.04-.5-.13-.48-.28-.64-.89-.37-1.37l4-6.93c.28-.48.89-.64 1.37-.37.48.28.64.89.37 1.37l-4 6.93c-.19.32-.53.5-.87.5zM4.25 46.35c-.17 0-.34-.04-.5-.13-.48-.28-.64-.89-.37-1.37l4-6.93c.28-.48.89-.64 1.37-.37.48.28.64.89.37 1.37l-4 6.93c-.19.32-.53.5-.87.5z"/>
    </g>
    <g transform="translate(25)">
      <circle cx="3" cy="3" r="3"/>
      <circle cx="3" cy="53" r="3"/>
      <path d="M3 13c-.55 0-1-.45-1-1V5c0-.55.45-1 1-1s1 .45 1 1v7c0 .55-.45 1-1 1zM3 52c-.55 0-1-.45-1-1v-7c0-.55.45-1 1-1s1 .45 1 1v7c0 .55-.45 1-1 1z"/>
    </g>
    <g transform="translate(12 3)">
      <circle cx="3.5" cy="3.35" r="3"/>
      <circle cx="28.5" cy="46.65" r="3"/>
      <path d="M8.27 12.61c-.35 0-.68-.18-.87-.5l-4.04-7c-.28-.48-.11-1.09.37-1.37s1.09-.11 1.37.37l4.04 7c.28.48.11 1.09-.37 1.37-.16.09-.33.13-.5.13zM27.75 46.35c-.35 0-.68-.18-.87-.5l-4-6.93c-.28-.48-.11-1.09.37-1.37s1.09-.11 1.37.37l4 6.93c.28.48.11 1.09-.37 1.37-.16.09-.33.13-.5.13z"/>
    </g>
    <g transform="translate(3 12)">
      <circle cx="3.35" cy="3.5" r="3"/>
      <circle cx="46.65" cy="28.5" r="3"/>
      <path d="M11.11 8.98c-.17 0-.34-.04-.5-.13l-6-3.46c-.48-.28-.64-.89-.37-1.37.28-.48.89-.64 1.37-.37l6 3.46c.48.28.64.89.37 1.37-.19.32-.52.5-.87.5zM44.89 28.48c-.17 0-.34-.04-.5-.13l-6-3.46c-.48-.28-.64-.89-.37-1.37.28-.48.89-.64 1.37-.37l6 3.46c.48.28.64.89.37 1.37-.19.32-.53.5-.87.5z"/>
    </g>
    <g transform="translate(11 11)">
      <circle cx="17" cy="17" r="2"/>
      <circle cx="22.25" cy="7.91" r="1.5"/>
      <path d="M17 0C7.61 0 0 7.61 0 17s7.61 17 17 17 17-7.61 17-17S26.39 0 17 0zm2.22 6.16c.47-.81 1.22-1.39 2.13-1.63.9-.24 1.85-.12 2.66.35 1.67.96 2.25 3.11 1.28 4.78-.47.81-1.22 1.39-2.13 1.63-.3.08-.61.12-.91.12-.61 0-1.21-.16-1.74-.47-1.68-.97-2.26-3.11-1.29-4.78zM10 4.88c.81-.47 1.75-.59 2.66-.35.9.24 1.66.82 2.13 1.63.96 1.67.39 3.82-1.28 4.78-.54.31-1.14.47-1.74.47-.3 0-.61-.04-.91-.12-.9-.24-1.66-.82-2.13-1.63-.98-1.67-.4-3.82 1.27-4.78zM3 17c0-1.93 1.57-3.5 3.5-3.5S10 15.07 10 17s-1.57 3.5-3.5 3.5S3 18.93 3 17zm11.78 10.84c-.47.81-1.22 1.39-2.13 1.63-.3.08-.61.12-.91.12-.61 0-1.21-.16-1.74-.47-1.67-.96-2.25-3.11-1.28-4.78.47-.81 1.22-1.39 2.13-1.63.9-.24 1.85-.12 2.66.35 1.66.97 2.24 3.11 1.27 4.78zM13 17c0-2.21 1.79-4 4-4s4 1.79 4 4-1.79 4-4 4-4-1.79-4-4zm11 12.12c-.54.31-1.14.47-1.74.47-.3 0-.61-.04-.91-.12-.9-.24-1.66-.82-2.13-1.63-.96-1.67-.39-3.82 1.28-4.78.81-.47 1.75-.59 2.66-.35.9.24 1.66.82 2.13 1.63.96 1.67.38 3.82-1.29 4.78zm3.5-8.62c-1.93 0-3.5-1.57-3.5-3.5s1.57-3.5 3.5-3.5S31 15.07 31 17s-1.57 3.5-3.5 3.5z"/>
    </g>
    <circle cx="22.75" cy="18.91" r="1.5"/>
    <circle cx="17.5" cy="28" r="1.5"/>
    <circle cx="22.75" cy="37.09" r="1.5"/>
    <circle cx="33.25" cy="37.09" r="1.5"/>
    <circle cx="38.5" cy="28" r="1.5"/>
  </g>
</svg>
