<svg xmlns="http://www.w3.org/2000/svg" width="65.6" height="70.3" viewBox="0 0 65.6 70.3"><style>.st6{fill:#fff}</style><path d="M8.9 37.2h23.3M8.9 44h28.3M8.9 50.7h21.8M8.9 57.5h21" fill="none" stroke="#4986c6" stroke-width="2" stroke-linecap="round" stroke-miterlimit="10"/><path d="M53.1 66.4H3.8c-1.6 0-2.8-1.3-2.8-2.8V3.8C1 2.3 2.3 1 3.8 1h49.3C54.7 1 56 2.3 56 3.8v59.7c0 1.6-1.3 2.9-2.9 2.9z" fill="none" stroke="#4986c6" stroke-width="2" stroke-miterlimit="10"/><ellipse cx="50.3" cy="54.9" rx="14.3" ry="14.3" fill="#5bb543" stroke="#4986c6" stroke-width="2" stroke-miterlimit="10"/><path d="M7.8 17.8h47.1v18.5H7.8V17.8z" fill="none"/><path d="M12.7 17.7c1.3 0 2.2.5 2.7.8.3.2.4.6.1.9l-.3.5c-.2.4-.5.4-.9.2s-1-.5-1.6-.5c-1.7 0-2.4 1.2-2.4 2.4 0 1.3.8 2.6 2.4 2.6.7 0 1.3-.3 1.8-.6.4-.3.7-.2.9.1l.3.5c.2.3.2.7-.1.9-.5.4-1.5 1-3 1-2.8 0-4.5-1.9-4.5-4.4.1-2.5 1.9-4.4 4.6-4.4zm3.6.9c-.2-.5 0-.8.5-.8h.9c.4 0 .6.2.7.6l1.3 4.3c.2.5.3 1.4.3 1.4s.2-.8.3-1.4l1.4-4.3c.1-.4.3-.6.7-.6h.9c.5 0 .7.3.5.8l-2.6 7.3c-.1.4-.4.5-.8.5h-1.1c-.4 0-.6-.2-.8-.5l-2.2-7.3z" fill="#4786c6"/><path id="tick-base" class="st6" d="M41.9 56.9l2.4-2.4 5.1 5.1L47 62l-5.1-5.1z"/><path id="tick-side" class="st6" d="M45.8 58.5L56.3 48l2.4 2.4-10.5 10.5-2.4-2.4z"/></svg>