<?xml version="1.0" encoding="utf-8"?>
<!DOCTYPE svg PUBLIC "-//W3C//DTD SVG 1.1//EN" "http://www.w3.org/Graphics/SVG/1.1/DTD/svg11.dtd">
<svg xmlns="http://www.w3.org/2000/svg" xmlns:xlink="http://www.w3.org/1999/xlink" x="0px" y="0px" width="16px" height="16px" viewBox="0 0 16 16" xml:space="preserve">
	<path fill="#55ACEE" d="M13,16c1.7,0,3-1.3,3-3V3c0-1.7-1.3-3-3-3H3C1.3,0,0,1.3,0,3v10c0,1.7,1.3,3,3,3H13z"/>
	<path fill="#FFFFFF" d="M13.9,4.3c-0.3,0.1-0.6,0.2-1,0.3c-0.1,0-0.2,0-0.3,0.1c0,0,0,0,0,0c0,0,0,0,0.1,0c0.3-0.2,0.5-0.4,0.7-0.7
		c0.1-0.2,0.2-0.3,0.2-0.5c0,0,0-0.1,0-0.1c0,0,0,0-0.1,0c0,0-0.1,0.1-0.1,0.1c-0.4,0.2-0.8,0.4-1.3,0.5c0,0-0.1,0-0.1,0
		c0,0-0.1-0.1-0.1-0.1c-1.3-1.1-3.4-0.6-4,1.1C7.8,5.2,7.8,5.6,7.8,6c0,0.1,0,0.1-0.1,0.1C6.1,6,4.4,5.2,3.2,4c0,0-0.4-0.5-0.5-0.4
		C2.6,3.9,2.5,4.3,2.4,4.7c0,0.9,0.4,1.5,1,2.1c-0.2,0-0.9-0.3-1-0.3C2.2,6.7,2.8,7.8,2.9,8c0.3,0.4,0.9,0.9,1.4,1c-0.1,0-1,0-1,0
		c-0.2,0.2,0.5,0.9,0.6,1c0.4,0.4,1,0.7,1.6,0.7c-0.3,0.7-3.6,1.1-3.6,1C2,11.9,2.3,12,2.4,12c4.5,2.4,10.4-0.9,10.4-6.1
		c0-0.1,0-0.2,0-0.3c0,0,0-0.1,0.1-0.1c0.1-0.1,0.3-0.2,0.4-0.3c0.2-0.2,0.4-0.4,0.5-0.6C13.8,4.5,13.9,4.4,13.9,4.3
		C14,4.3,14,4.3,13.9,4.3C14,4.2,13.9,4.2,13.9,4.3C13.6,4.4,13.9,4.2,13.9,4.3C13.6,4.4,13.9,4.2,13.9,4.3
		C13.6,4.4,13.9,4.2,13.9,4.3C13.6,4.4,13.9,4.2,13.9,4.3C13.6,4.4,13.9,4.2,13.9,4.3z"/>
</svg>
