<?xml version="1.0" encoding="utf-8"?>
<!DOCTYPE svg PUBLIC "-//W3C//DTD SVG 1.1//EN" "http://www.w3.org/Graphics/SVG/1.1/DTD/svg11.dtd">
<svg xmlns="http://www.w3.org/2000/svg" xmlns:xlink="http://www.w3.org/1999/xlink" x="0px" y="0px" width="16px"
	 height="16px" viewBox="0 0 16 16" xml:space="preserve">
	<path fill="#007BB6" d="M13,0H3C1.3,0,0,1.3,0,3v10c0,1.7,1.3,3,3,3h10c1.7,0,3-1.3,3-3V3C16,1.3,14.7,0,13,0z"/>
	<rect x="2.6" y="6.1" fill="#FFFFFF" width="2.4" height="7.4"/>
	<path fill="#FFFFFF" d="M3.8,5.1L3.8,5.1C3,5.1,2.5,4.5,2.5,3.8c0-0.7,0.5-1.3,1.3-1.3c0.8,0,1.3,0.6,1.3,1.3
		C5.2,4.5,4.6,5.1,3.8,5.1z"/>
	<path fill="#FFFFFF" d="M13.5,13.5h-2.4v-4c0-1-0.3-1.7-1.2-1.7c-0.7,0-1,0.5-1.2,0.9C8.7,8.9,8.7,9.1,8.7,9.4v4.1H6.3
		c0,0,0-6.7,0-7.4h2.4v1.1C9,6.6,9.5,5.9,10.8,5.9c1.6,0,2.7,1.1,2.7,3.3V13.5z"/>
</svg>
