<svg id="Layer_1" xmlns="http://www.w3.org/2000/svg" viewBox="0 0 100 100"><style>.st0{fill:none;} .st1{fill:#233E4F;} .st2{fill:#A7CEAB;}</style><path class="st0" d="M27.4 81.2h45.1V12.9H27.4v68.3zM50.5 38c5.1 0 9.1 4 9.1 9.1s-4 9.1-9.1 9.1-9.1-4-9.1-9.1 3.9-9.1 9.1-9.1zm0 48.1c-2.6 0-4.6 2.1-4.6 4.6 0 2.6 2.1 4.6 4.6 4.6s4.6-2 4.6-4.6-2-4.6-4.6-4.6z"/><path class="st1" d="M79.7-.2h-62v100.3h64.6V-.1h-2.6zM50.5 95.3c-2.5 0-4.6-2-4.6-4.6 0-2.5 2-4.6 4.6-4.6s4.6 2 4.6 4.6-2.1 4.6-4.6 4.6zm22.1-14.1H27.4V12.9h45.1v68.3z"/><path class="st2" d="M50 60.2c-7.9 0-14.2-6.4-14.2-14.2S42.2 31.7 50 31.7c7.9 0 14.2 6.4 14.2 14.2S57.8 60.2 50 60.2zm0-23.7c-5.2 0-9.4 4.2-9.4 9.4s4.2 9.4 9.4 9.4 9.4-4.2 9.4-9.4-4.2-9.4-9.4-9.4z"/><path class="st2" d="M62 67.3c-1.1.6-2.6.1-3.4-1.2l-4.3-7.5c-.8-1.3-.5-2.9.6-3.5 1.1-.6 2.6-.1 3.4 1.2l4.3 7.5c.8 1.3.5 2.8-.6 3.5"/><path class="st2" d="M61 68.3c-1.1 0-2.3-.7-3-1.9l-4.3-7.5c-.5-.8-.6-1.7-.5-2.5.2-.9.6-1.6 1.3-2 .7-.4 1.6-.5 2.4-.2.8.3 1.5.9 1.9 1.6l4.3 7.5c1 1.6.5 3.7-.9 4.5-.3.3-.7.5-1.2.5zm-5.1-12.8c-.2 0-.5 0-.6.2-.3.2-.6.5-.7 1-.1.5 0 1.1.3 1.5l4.3 7.5c.5.9 1.6 1.4 2.4 1 .8-.4.9-1.6.4-2.5l-4.3-7.6c-.3-.5-.7-.8-1.2-1-.2-.1-.4-.1-.6-.1z"/></svg>