<?xml version="1.0" encoding="utf-8"?>
<!DOCTYPE svg PUBLIC "-//W3C//DTD SVG 1.1//EN" "http://www.w3.org/Graphics/SVG/1.1/DTD/svg11.dtd">
<svg xmlns="http://www.w3.org/2000/svg" xmlns:xlink="http://www.w3.org/1999/xlink" x="0px" y="0px" width="60px"
	 height="42px" viewBox="0 0 60 42" xml:space="preserve">
	<path fill-rule="evenodd" clip-rule="evenodd" fill="#868D9F" d="M0,42h52.6V7.5H0V42z M48.1,19.6c0,2.5,0,4.9,0,7.4v3
		c-4.2,0.5-6.8,3-7.5,7.5H11.9c-0.4-4.1-3.4-7.2-7.4-7.5V19.6C8.8,19,11.3,16.5,12,12h28.7c0,0.1,0,0.2,0,0.3
		c0.1,0.4,0.1,0.9,0.3,1.3c0.9,3.3,3.6,5.6,7,5.8c0.1,0,0.2,0,0.2,0C48.1,19.5,48.1,19.5,48.1,19.6z"/>
	<polygon fill-rule="evenodd" clip-rule="evenodd" fill="#868D9F" points="3.7,4.5 55.5,4.5 55.5,38.3 60,38.3 60,0 3.7,0 	"/>
	<path fill-rule="evenodd" clip-rule="evenodd" fill="#868D9F" d="M26.2,15.4c-5.1,0.1-9.2,4.3-9.2,9.4c0,5.2,4.2,9.4,9.3,9.4
		c5.1,0,9.2-4.2,9.2-9.4C35.5,19.5,31.3,15.3,26.2,15.4z"/>
</svg>
