<?xml version="1.0" encoding="utf-8"?>
<!DOCTYPE svg PUBLIC "-//W3C//DTD SVG 1.1//EN" "http://www.w3.org/Graphics/SVG/1.1/DTD/svg11.dtd">
<svg xmlns="http://www.w3.org/2000/svg" xmlns:xlink="http://www.w3.org/1999/xlink" x="0px" y="0px" width="60px" height="52px" viewBox="0 0 60 52" xml:space="preserve">
	<path fill="#868D9F" d="M9.5,12.7H3.8c-2.1,0-3.8,1.7-3.8,3.8v31.6C0,50.3,1.7,52,3.8,52h5.7c2.1,0,3.8-1.7,3.8-3.8V16.6C13.3,14.5,11.6,12.7,9.5,12.7z"/>
	<path fill="#868D9F" d="M25.1,20.6h-5.7c-2.1,0-3.8,1.7-3.8,3.8v23.8c0,2.1,1.7,3.8,3.8,3.8h5.7c2.1,0,3.8-1.7,3.8-3.8V24.4C28.9,22.3,27.2,20.6,25.1,20.6z"/>
	<path fill="#868D9F" d="M40.7,0H35c-2.1,0-3.8,1.7-3.8,3.8v44.3c0,2.1,1.7,3.8,3.8,3.8h5.7c2.1,0,3.8-1.7,3.8-3.8V3.8C44.5,1.7,42.7,0,40.7,0z"/>
	<path fill="#868D9F" d="M56.2,32.4h-5.7c-2.1,0-3.8,1.7-3.8,3.8v12c0,2.1,1.7,3.8,3.8,3.8h5.7c2.1,0,3.8-1.7,3.8-3.8v-12C60,34.1,58.3,32.4,56.2,32.4z"/>
</svg>
