<?xml version="1.0" encoding="utf-8"?>
<!DOCTYPE svg PUBLIC "-//W3C//DTD SVG 1.1//EN" "http://www.w3.org/Graphics/SVG/1.1/DTD/svg11.dtd">
<svg version="1.1" xmlns="http://www.w3.org/2000/svg" xmlns:xlink="http://www.w3.org/1999/xlink" x="0px" y="0px" width="14px" height="52px" viewBox="0 0 14 52" xml:space="preserve">
	<g>
		<path fill="#E6E8E8" d="M7,25.5c-0.7,0-1.3-0.3-1.6-0.9l-4.2-8.5c-0.4-0.8-0.6-1.7-0.6-2.6V4c0-1.9,1.6-3.5,3.5-3.5h6
			c1.9,0,3.5,1.6,3.5,3.5v9.5c0,0.9-0.2,1.8-0.6,2.6l-4.3,8.5C8.3,25.2,7.7,25.5,7,25.5z"/>
		<path fill="#AAAAAA" d="M10,1c1.7,0,3,1.3,3,3v9.5c0,0.8-0.2,1.7-0.6,2.4l-4.2,8.5C7.9,24.8,7.5,25,7,25c-0.5,0-0.9-0.2-1.2-0.6
			l-4.2-8.5C1.2,15.2,1,14.3,1,13.5V4c0-1.7,1.3-3,3-3H10 M10,0H4C1.8,0,0,1.8,0,4v9.5c0,1,0.2,2,0.7,2.9l4.3,8.5
			C5.4,25.6,6.2,26,7,26s1.6-0.4,2.1-1.1l4.3-8.5c0.4-0.9,0.7-1.9,0.7-2.9V4C14,1.8,12.2,0,10,0L10,0z"/>
	</g>
	<g>
		<path fill="#FFFFFF" d="M7,51.5c-0.7,0-1.3-0.3-1.6-0.9l-4.2-8.5c-0.4-0.8-0.6-1.7-0.6-2.6V30c0-1.9,1.6-3.5,3.5-3.5h6
			c1.9,0,3.5,1.6,3.5,3.5v9.5c0,0.9-0.2,1.8-0.6,2.6l-4.3,8.5C8.3,51.2,7.7,51.5,7,51.5z"/>
		<path fill="#AAAAAA" d="M10,27c1.7,0,3,1.3,3,3v9.5c0,0.8-0.2,1.7-0.6,2.4l-4.2,8.5C7.9,50.8,7.5,51,7,51c-0.5,0-0.9-0.2-1.2-0.6
			l-4.2-8.5C1.2,41.2,1,40.3,1,39.5V30c0-1.7,1.3-3,3-3H10 M10,26H4c-2.2,0-4,1.8-4,4v9.5c0,1,0.2,2,0.7,2.9l4.3,8.5
			C5.4,51.6,6.2,52,7,52s1.6-0.4,2.1-1.1l4.3-8.5c0.4-0.9,0.7-1.9,0.7-2.9V30C14,27.8,12.2,26,10,26L10,26z"/>
	</g>
</svg>
