<svg xmlns="http://www.w3.org/2000/svg" viewBox="0 0 512 512" width="512" height="512">
	<style>
		tspan { white-space:pre }
		.shp0 { fill: #ffffff } 
	</style>
	<path id="Layer" class="shp0" d="M456 133C442 140 425 144 409 146C426 136 439 119 446 100C431 110 412 116 394 120C333 58 237 113 253 195C185 192 124 160 84 110C62 147 73 196 110 219C97 219 84 215 73 210C73 249 101 282 138 290C126 293 113 294 101 292C111 325 142 349 178 349C136 379 101 387 56 383C226 494 434 351 415 175C431 164 445 150 456 133Z" />
</svg>