<?xml version="1.0" encoding="utf-8"?>
<!DOCTYPE svg PUBLIC "-//W3C//DTD SVG 1.1//EN" "http://www.w3.org/Graphics/SVG/1.1/DTD/svg11.dtd">
<svg version="1.1" xmlns="http://www.w3.org/2000/svg" xmlns:xlink="http://www.w3.org/1999/xlink" x="0px" y="0px"
	 width="80px" height="80px" viewBox="0 0 80 80" enable-background="new 0 0 80 80" xml:space="preserve">
<circle fill="#A7CEAB" cx="40" cy="40" r="39"/>
<circle fill="#FFFFFF" cx="40" cy="40" r="36.5"/>
<circle fill="#223E4F" cx="40" cy="40" r="30.5"/>
<circle fill="#FFFFFF" cx="40" cy="40" r="27.5"/>
<path fill="#A7CEAB" d="M42,24c0-2,0-5,0-6c0-3-3-3-3,0c0,1,0,4,0,6S42,26,42,24z"/>
<path fill="#A7CEAB" d="M24,39c-2,0-5,0-7,0s-2,3,0,3s5,0,7,0S26,39,24,39z"/>
<path fill="#A7CEAB" d="M26.57,29.9c1.32,1.32,3.36-0.72,2.04-2.04c-1.59-1.59-3.18-3.18-4.77-4.77c-1.32-1.32-3.36,0.72-2.04,2.04
	C23.39,26.72,24.98,28.31,26.57,29.9z"/>
<path fill="#A7CEAB" d="M26.57,50.45c-1.59,1.59-3.18,3.18-4.77,4.77c-1.32,1.32,0.72,3.36,2.04,2.04c1.59-1.59,3.18-3.18,4.77-4.77
	C29.93,51.18,27.89,49.13,26.57,50.45z"/>
<path fill="#223E4F" d="M39.94,37.24c-1.31,0-2.55,0.8-3.03,2.1c-0.46,1.21-0.13,2.53,0.72,3.4l-1.58,4.22l2.57,0.96l1.58-4.22
	c1.21-0.1,2.32-0.88,2.77-2.09c0.5-1.32,0.07-2.76-0.96-3.62l3.9-13.89L39.94,37.24z"/>
<path fill="#223E4F" d="M59.69,49.29c-0.54,0.2-1.08,0.4-1.63,0.6c2.92-5.71,4.02-12.18,1.29-18.27c-1.39-3.11-3.55-6.06-6.32-8.1
	c-1.5-1.11-2.94,1.4-1.46,2.5c1.47,1.09,3.7,3.91,4.82,6.08c2.82,5.43,1.7,11.39-0.96,16.57c-0.13-0.35-0.26-0.7-0.39-1.05
	c-0.64-1.73-3.43-0.99-2.79,0.77c0.55,1.48,1.09,2.97,1.64,4.45c0.25,0.69,0.99,1.3,1.78,1.01c1.59-0.59,3.19-1.17,4.78-1.76
	C62.19,51.43,61.44,48.64,59.69,49.29z"/>
</svg>
